<svg width="379" height="45" viewBox="0 0 379 45" fill="none" xmlns="http://www.w3.org/2000/svg">
<path d="M20 0H39L19 45H0L20 0Z" fill="#EDEDED"/>
<path d="M63 0H82L62 45H43L63 0Z" fill="#EDEDED"/>
<path d="M106 0H125L105 45H86L106 0Z" fill="#EDEDED"/>
<path d="M149 0H168L148 45H129L149 0Z" fill="#EDEDED"/>
<path d="M192 0H211L191 45H172L192 0Z" fill="#EDEDED"/>
<path d="M235 0H254L234 45H215L235 0Z" fill="#EDEDED"/>
<path d="M278 0H297L277 45H258L278 0Z" fill="#EDEDED"/>
<path d="M321 0H340L320 45H301L321 0Z" fill="#EDEDED"/>
<path d="M364 0H383L363 45H344L364 0Z" fill="#EDEDED"/>
</svg>
