<svg width="24" height="20" viewBox="0 0 24 20" fill="none" xmlns="http://www.w3.org/2000/svg">
<path fill-rule="evenodd" clip-rule="evenodd" d="M12.6731 13.8698H19.2859L17.2611 16.2998C17.0638 16.5361 17.0961 16.8878 17.3324 17.0846C17.5693 17.2819 17.9204 17.2495 18.1177 17.0132L20.9044 13.6692C20.9261 13.643 20.9367 13.6123 20.9529 13.5834C20.9662 13.56 20.9824 13.5399 20.9924 13.5143C21.0175 13.4502 21.0326 13.3827 21.0326 13.3147C21.0326 13.3142 21.0331 13.3131 21.0331 13.3125C21.0331 13.3119 21.0326 13.3108 21.0326 13.3103C21.0326 13.2423 21.0175 13.1748 20.9924 13.1107C20.9824 13.0851 20.9662 13.065 20.9529 13.0416C20.9367 13.0126 20.9261 12.982 20.9044 12.9558L18.1177 9.61177C18.0068 9.47969 17.8485 9.41113 17.6891 9.41113C17.5631 9.41113 17.4366 9.45349 17.3324 9.54044C17.0961 9.73718 17.0638 10.0889 17.2611 10.3252L19.2859 12.7552H12.6731C12.3654 12.7552 12.1157 13.0048 12.1157 13.3125C12.1157 13.6201 12.3654 13.8698 12.6731 13.8698Z" fill="#EB1537"/>
<path d="M12.6731 13.8698H19.2859L17.2611 16.2998C17.0638 16.5361 17.0961 16.8878 17.3324 17.0846C17.5693 17.2819 17.9204 17.2495 18.1177 17.0132L20.9044 13.6692C20.9261 13.643 20.9367 13.6123 20.9529 13.5834C20.9662 13.56 20.9824 13.5399 20.9924 13.5143C21.0175 13.4502 21.0326 13.3827 21.0326 13.3147C21.0326 13.3142 21.0331 13.3131 21.0331 13.3125C21.0331 13.3119 21.0326 13.3108 21.0326 13.3103C21.0326 13.2423 21.0175 13.1748 20.9924 13.1107C20.9824 13.0851 20.9662 13.065 20.9529 13.0416C20.9367 13.0126 20.9261 12.982 20.9044 12.9558L18.1177 9.61177C18.0068 9.47969 17.8485 9.41113 17.6891 9.41113C17.5631 9.41113 17.4366 9.45349 17.3324 9.54044C17.0961 9.73718 17.0638 10.0889 17.2611 10.3252L19.2859 12.7552H12.6731C12.3654 12.7552 12.1157 13.0048 12.1157 13.3125C12.1157 13.6201 12.3654 13.8698 12.6731 13.8698" stroke="#EB1537" stroke-width="0.8"/>
<path fill-rule="evenodd" clip-rule="evenodd" d="M11.2156 6.58134L4.6028 6.58134L6.62761 4.15135C6.82491 3.91504 6.79258 3.56336 6.55627 3.36662C6.3194 3.16932 5.96828 3.20164 5.77098 3.43796L2.98429 6.78198C2.96256 6.80817 2.95197 6.83883 2.93581 6.86781C2.92243 6.89122 2.90627 6.91128 2.89623 6.93692C2.87115 7.00101 2.85611 7.06845 2.85611 7.13645C2.85611 7.137 2.85555 7.13812 2.85555 7.13868C2.85555 7.13923 2.85611 7.14035 2.85611 7.14091C2.85611 7.2089 2.87115 7.27634 2.89623 7.34043C2.90627 7.36607 2.92243 7.38613 2.93581 7.40954C2.95197 7.43852 2.96256 7.46918 2.98429 7.49537L5.77098 10.8394C5.88189 10.9715 6.04018 11.04 6.19957 11.04C6.32553 11.04 6.45205 10.9977 6.55627 10.9107C6.79258 10.714 6.82491 10.3623 6.62761 10.126L4.6028 7.69601L11.2156 7.69601C11.5233 7.69601 11.7729 7.44633 11.7729 7.13868C11.7729 6.83103 11.5233 6.58134 11.2156 6.58134Z" fill="#EB1537"/>
<path d="M11.2156 6.58134L4.6028 6.58134L6.62761 4.15135C6.82491 3.91504 6.79258 3.56336 6.55627 3.36662C6.3194 3.16932 5.96828 3.20164 5.77098 3.43796L2.98429 6.78198C2.96256 6.80818 2.95197 6.83883 2.93581 6.86781C2.92243 6.89122 2.90627 6.91128 2.89623 6.93692C2.87115 7.00101 2.85611 7.06845 2.85611 7.13645C2.85611 7.137 2.85555 7.13812 2.85555 7.13868C2.85555 7.13923 2.85611 7.14035 2.85611 7.14091C2.85611 7.2089 2.87115 7.27634 2.89623 7.34043C2.90627 7.36607 2.92243 7.38613 2.93581 7.40954C2.95197 7.43852 2.96256 7.46918 2.98429 7.49537L5.77098 10.8394C5.88189 10.9715 6.04018 11.04 6.19957 11.04C6.32553 11.04 6.45205 10.9977 6.55627 10.9107C6.79258 10.714 6.82491 10.3623 6.62761 10.126L4.6028 7.69601L11.2156 7.69601C11.5233 7.69601 11.7729 7.44633 11.7729 7.13868C11.7729 6.83103 11.5233 6.58134 11.2156 6.58134" stroke="#EB1537" stroke-width="0.8"/>
</svg>
