<svg width="22" height="22" viewBox="0 0 22 22" fill="none" xmlns="http://www.w3.org/2000/svg">
<path d="M11 0C4.93436 0 0 4.93436 0 11C0 17.0656 4.93436 22 11 22C17.0656 22 22 17.0656 22 11C22 4.93436 17.0656 0 11 0Z" fill="#E0E0E0"/>
<path d="M15.0508 13.7548C15.4092 14.1133 15.4092 14.6925 15.0508 15.0511C14.8721 15.2298 14.6374 15.3196 14.4026 15.3196C14.1679 15.3196 13.9333 15.2298 13.7545 15.0511L11 12.2964L8.24546 15.0511C8.06671 15.2298 7.83206 15.3196 7.59741 15.3196C7.36259 15.3196 7.12794 15.2298 6.94918 15.0511C6.59083 14.6925 6.59083 14.1133 6.94918 13.7548L9.70388 11.0002L6.94918 8.24571C6.59083 7.88719 6.59083 7.30795 6.94918 6.94943C7.3077 6.59108 7.88694 6.59108 8.24546 6.94943L11 9.70413L13.7545 6.94943C14.113 6.59108 14.6923 6.59108 15.0508 6.94943C15.4092 7.30795 15.4092 7.88719 15.0508 8.24571L12.2961 11.0002L15.0508 13.7548Z" fill="#FAFAFA"/>
</svg>
