<svg width="22" height="22" viewBox="0 0 22 22" fill="none" xmlns="http://www.w3.org/2000/svg">
<mask id="path-1-outside-1" maskUnits="userSpaceOnUse" x="3.11684" y="2.4862" width="16" height="17" fill="black">
<rect fill="white" x="3.11684" y="2.4862" width="16" height="17"/>
<path fill-rule="evenodd" clip-rule="evenodd" d="M4.76452 10.5286C4.52892 10.2586 4.39224 9.89264 4.39224 9.49987C4.39224 8.93324 4.67587 8.43523 5.0979 8.19211C5.01041 7.99212 4.96409 7.77057 4.96409 7.53921C4.96409 6.97258 5.24831 6.47393 5.67034 6.23145C5.53996 5.93343 5.50165 5.59032 5.56741 5.24916C5.69549 4.58778 6.24048 4.10806 6.86323 4.10806L12.1123 4.10806C12.5098 4.10806 13.1502 4.25511 13.6261 4.53484C13.8251 3.90547 14.3535 3.45452 14.9716 3.45452L16.6872 3.45452C17.4758 3.45452 18.1168 4.18713 18.1168 5.08839L18.1168 10.3168C18.1168 11.2181 17.4758 11.9507 16.6872 11.9507L13.8279 11.9507C13.6701 11.9507 13.542 11.8043 13.542 11.6239L13.542 11.4991L13.4739 11.539L11.8264 15.6165L11.8264 17.8327C11.8264 17.932 11.787 18.0261 11.7189 18.0882L11.7183 18.0887C11.6931 18.1111 11.2707 18.4862 10.6827 18.4862C10.021 18.4862 8.96711 17.2896 8.96711 15.872C8.96711 14.9779 9.24732 13.865 9.42231 13.2578L5.88994 13.2578C5.12023 13.2578 4.46545 12.6069 4.39854 11.7762C4.36136 11.3102 4.49745 10.8625 4.76452 10.5286ZM5.83732 8.47184C5.80188 8.59276 5.70865 8.67835 5.59829 8.6934C5.23687 8.74109 4.96409 9.08749 4.96412 9.49987C4.96412 9.80441 5.11393 10.0815 5.35583 10.222C5.44732 10.2763 5.5068 10.3822 5.5108 10.5004C5.51479 10.6187 5.46276 10.7298 5.37526 10.7913C5.0945 10.9893 4.93779 11.3435 4.96811 11.7161C5.00813 12.2141 5.41301 12.6042 5.88994 12.6042L9.8249 12.6042C9.91867 12.6042 10.0068 12.6572 10.0605 12.7454C10.1137 12.8343 10.1251 12.9473 10.0919 13.0473C10.0918 13.0477 10.0915 13.0488 10.0909 13.0506C10.0637 13.1342 9.53896 14.7463 9.53896 15.872C9.53896 16.9425 10.3693 17.8327 10.6827 17.8327C10.9291 17.8327 11.1356 17.7307 11.2546 17.6556L11.2546 15.5452C11.2546 15.4982 11.2637 15.4511 11.2809 15.408L12.9964 11.1599C13.0239 11.0926 13.0702 11.0377 13.128 11.005L13.5419 10.7685L13.5419 5.23879C13.2194 4.96827 12.5354 4.76161 12.1123 4.76161L6.8632 4.76161C6.50636 4.76161 6.19641 5.02565 6.12607 5.39033C6.06946 5.68314 6.14494 5.96744 6.33309 6.17003C6.41429 6.25762 6.44345 6.39027 6.40858 6.51118C6.37314 6.6321 6.27991 6.7177 6.16955 6.73274C5.80872 6.78044 5.53594 7.12683 5.53594 7.53921C5.53594 7.76404 5.61657 7.97448 5.76183 8.13069C5.84303 8.21827 5.87219 8.35092 5.83732 8.47184ZM14.1138 5.09474C14.1138 5.09263 14.1138 5.09051 14.1138 5.08839C14.1138 4.54789 14.4987 4.10806 14.9716 4.10806L16.6872 4.10806C17.1601 4.10806 17.545 4.5479 17.545 5.08839L17.545 10.3168C17.545 10.8573 17.1601 11.2972 16.6872 11.2972L14.1138 11.2972L14.1138 10.9704C14.1138 10.9682 14.1138 10.9661 14.1138 10.964L14.1138 5.09474Z"/>
</mask>
<path fill-rule="evenodd" clip-rule="evenodd" d="M4.76452 10.5286C4.52892 10.2586 4.39224 9.89264 4.39224 9.49987C4.39224 8.93324 4.67587 8.43523 5.0979 8.19211C5.01041 7.99212 4.96409 7.77057 4.96409 7.53921C4.96409 6.97258 5.24831 6.47393 5.67034 6.23145C5.53996 5.93343 5.50165 5.59032 5.56741 5.24916C5.69549 4.58778 6.24048 4.10806 6.86323 4.10806L12.1123 4.10806C12.5098 4.10806 13.1502 4.25511 13.6261 4.53484C13.8251 3.90547 14.3535 3.45452 14.9716 3.45452L16.6872 3.45452C17.4758 3.45452 18.1168 4.18713 18.1168 5.08839L18.1168 10.3168C18.1168 11.2181 17.4758 11.9507 16.6872 11.9507L13.8279 11.9507C13.6701 11.9507 13.542 11.8043 13.542 11.6239L13.542 11.4991L13.4739 11.539L11.8264 15.6165L11.8264 17.8327C11.8264 17.932 11.787 18.0261 11.7189 18.0882L11.7183 18.0887C11.6931 18.1111 11.2707 18.4862 10.6827 18.4862C10.021 18.4862 8.96711 17.2896 8.96711 15.872C8.96711 14.9779 9.24732 13.865 9.42231 13.2578L5.88994 13.2578C5.12023 13.2578 4.46545 12.6069 4.39854 11.7762C4.36136 11.3102 4.49745 10.8625 4.76452 10.5286ZM5.83732 8.47184C5.80188 8.59276 5.70865 8.67835 5.59829 8.6934C5.23687 8.74109 4.96409 9.08749 4.96412 9.49987C4.96412 9.80441 5.11393 10.0815 5.35583 10.222C5.44732 10.2763 5.5068 10.3822 5.5108 10.5004C5.51479 10.6187 5.46276 10.7298 5.37526 10.7913C5.0945 10.9893 4.93779 11.3435 4.96811 11.7161C5.00813 12.2141 5.41301 12.6042 5.88994 12.6042L9.8249 12.6042C9.91867 12.6042 10.0068 12.6572 10.0605 12.7454C10.1137 12.8343 10.1251 12.9473 10.0919 13.0473C10.0918 13.0477 10.0915 13.0488 10.0909 13.0506C10.0637 13.1342 9.53896 14.7463 9.53896 15.872C9.53896 16.9425 10.3693 17.8327 10.6827 17.8327C10.9291 17.8327 11.1356 17.7307 11.2546 17.6556L11.2546 15.5452C11.2546 15.4982 11.2637 15.4511 11.2809 15.408L12.9964 11.1599C13.0239 11.0926 13.0702 11.0377 13.128 11.005L13.5419 10.7685L13.5419 5.23879C13.2194 4.96827 12.5354 4.76161 12.1123 4.76161L6.8632 4.76161C6.50636 4.76161 6.19641 5.02565 6.12607 5.39033C6.06946 5.68314 6.14494 5.96744 6.33309 6.17003C6.41429 6.25762 6.44345 6.39027 6.40858 6.51118C6.37314 6.6321 6.27991 6.7177 6.16955 6.73274C5.80872 6.78044 5.53594 7.12683 5.53594 7.53921C5.53594 7.76404 5.61657 7.97448 5.76183 8.13069C5.84303 8.21827 5.87219 8.35092 5.83732 8.47184ZM14.1138 5.09474C14.1138 5.09263 14.1138 5.09051 14.1138 5.08839C14.1138 4.54789 14.4987 4.10806 14.9716 4.10806L16.6872 4.10806C17.1601 4.10806 17.545 4.5479 17.545 5.08839L17.545 10.3168C17.545 10.8573 17.1601 11.2972 16.6872 11.2972L14.1138 11.2972L14.1138 10.9704C14.1138 10.9682 14.1138 10.9661 14.1138 10.964L14.1138 5.09474Z" fill="#EB1537"/>
<path d="M4.76452 10.5286L5.15501 10.8408L5.41595 10.5146L5.14122 10.1998L4.76452 10.5286ZM5.0979 8.19211L5.34749 8.62536L5.73544 8.40188L5.55598 7.9917L5.0979 8.19211ZM5.67034 6.23145L5.91943 6.66499L6.30808 6.44169L6.12842 6.03105L5.67034 6.23145ZM5.56741 5.24916L5.07653 5.1541L5.07644 5.15454L5.56741 5.24916ZM6.86323 4.10806L6.86323 3.60806L6.86323 4.10806ZM12.1123 4.10806L12.1123 4.60806L12.1123 4.10806ZM13.6261 4.53484L13.3726 4.96587L13.9136 5.28391L14.1028 4.68559L13.6261 4.53484ZM16.6872 11.9507L16.6872 12.4507L16.6872 12.4507L16.6872 11.9507ZM13.8279 11.9507L13.8279 11.4507L13.8279 11.9507ZM13.542 11.4991L14.042 11.4991L14.042 10.6269L13.2893 11.0676L13.542 11.4991ZM13.4739 11.539L13.2213 11.1075L13.0742 11.1936L13.0103 11.3516L13.4739 11.539ZM11.8264 15.6165L11.3628 15.4292L11.3264 15.5193L11.3264 15.6165L11.8264 15.6165ZM11.7189 18.0882L12.0507 18.4623L12.0559 18.4576L11.7189 18.0882ZM11.7183 18.0887L11.3865 17.7147L11.3863 17.7149L11.7183 18.0887ZM9.42231 13.2578L9.90275 13.3963L10.0868 12.7578L9.42231 12.7578L9.42231 13.2578ZM5.88994 13.2578L5.88994 12.7578L5.88994 13.2578ZM4.39854 11.7762L3.90012 11.816L3.90015 11.8163L4.39854 11.7762ZM5.59829 8.6934L5.66371 9.1891L5.66581 9.18881L5.59829 8.6934ZM5.83732 8.47184L6.31714 8.61246L6.31774 8.6104L5.83732 8.47184ZM4.96412 9.49987L5.46412 9.49987L5.46412 9.49984L4.96412 9.49987ZM5.35583 10.222L5.61088 9.79195L5.60699 9.78969L5.35583 10.222ZM5.5108 10.5004L6.01051 10.4836L5.5108 10.5004ZM5.37526 10.7913L5.08797 10.382L5.08708 10.3827L5.37526 10.7913ZM4.96811 11.7161L5.4665 11.676L5.46646 11.6755L4.96811 11.7161ZM5.88994 12.6042L5.88994 12.1042L5.88994 12.6042ZM9.8249 12.6042L9.8249 13.1042L9.8249 12.6042ZM10.0605 12.7454L10.4896 12.4886L10.4875 12.4853L10.0605 12.7454ZM10.0919 13.0473L9.6173 12.8899L9.61493 12.8975L10.0919 13.0473ZM10.0909 13.0506L9.61546 12.8958L9.61544 12.8959L10.0909 13.0506ZM9.53896 15.872L10.039 15.872L10.039 15.872L9.53896 15.872ZM11.2546 17.6556L11.5216 18.0783L11.7546 17.9311L11.7546 17.6556L11.2546 17.6556ZM11.2546 15.5452L10.7546 15.5452L11.2546 15.5452ZM11.2809 15.408L10.8172 15.2208L10.8163 15.2232L11.2809 15.408ZM12.9964 11.1599L12.5335 10.9711L12.5328 10.9727L12.9964 11.1599ZM13.128 11.005L13.3742 11.4402L13.3761 11.4391L13.128 11.005ZM13.5419 10.7685L13.79 11.2026L14.0419 11.0586L14.0419 10.7685L13.5419 10.7685ZM13.5419 5.23879L14.0419 5.23879L14.0419 5.00561L13.8633 4.85574L13.5419 5.23879ZM6.12607 5.39033L6.61698 5.48525L6.61702 5.48502L6.12607 5.39033ZM6.33309 6.17003L6.69977 5.83011L6.69946 5.82978L6.33309 6.17003ZM6.40858 6.51118L6.8884 6.65181L6.889 6.64974L6.40858 6.51118ZM6.16955 6.73274L6.23508 7.22843L6.23707 7.22816L6.16955 6.73274ZM5.76183 8.13069L6.12851 7.79076L6.12798 7.7902L5.76183 8.13069ZM14.1138 5.09474L13.6138 5.08629L13.6138 5.09474L14.1138 5.09474ZM17.545 5.08839L18.045 5.08839L17.545 5.08839ZM17.545 10.3168L18.045 10.3168L17.545 10.3168ZM14.1138 11.2972L13.6138 11.2972L13.6138 11.7972L14.1138 11.7972L14.1138 11.2972ZM14.1138 10.964L13.6137 10.964L13.6139 10.9725L14.1138 10.964ZM3.89224 9.49987C3.89224 10.0071 4.06862 10.4916 4.38782 10.8574L5.14122 10.1998C4.98923 10.0257 4.89224 9.77815 4.89224 9.49987L3.89224 9.49987ZM4.84832 7.75886C4.25639 8.09985 3.89224 8.7724 3.89224 9.49987L4.89224 9.49987C4.89224 9.09408 5.09536 8.77061 5.34749 8.62536L4.84832 7.75886ZM4.46409 7.53921C4.46409 7.83746 4.52386 8.12745 4.63983 8.39252L5.55598 7.9917C5.49696 7.8568 5.46409 7.70368 5.46409 7.53921L4.46409 7.53921ZM5.42125 5.79792C4.82889 6.13826 4.46409 6.81172 4.46409 7.53921L5.46409 7.53921C5.46409 7.13344 5.66774 6.8096 5.91943 6.66499L5.42125 5.79792ZM5.07644 5.15454C4.99218 5.59175 5.03996 6.03802 5.21226 6.43186L6.12842 6.03105C6.03996 5.82884 6.01113 5.58888 6.05837 5.34379L5.07644 5.15454ZM6.86323 3.60806C5.97373 3.60806 5.24475 4.28543 5.07653 5.1541L6.05829 5.34422C6.14622 4.89013 6.50723 4.60806 6.86323 4.60806L6.86323 3.60806ZM12.1123 3.60806L6.86323 3.60806L6.86323 4.60806L12.1123 4.60806L12.1123 3.60806ZM13.8795 4.10382C13.3237 3.77705 12.5951 3.60806 12.1123 3.60806L12.1123 4.60806C12.4244 4.60806 12.9768 4.73318 13.3726 4.96587L13.8795 4.10382ZM14.9716 2.95452C14.0933 2.95452 13.4004 3.58991 13.1493 4.3841L14.1028 4.68559C14.2497 4.22103 14.6136 3.95452 14.9716 3.95452L14.9716 2.95452ZM16.6872 2.95452L14.9716 2.95452L14.9716 3.95452L16.6872 3.95452L16.6872 2.95452ZM18.6168 5.08839C18.6168 3.97579 17.8125 2.95452 16.6872 2.95452L16.6872 3.95452C17.139 3.95452 17.6168 4.39848 17.6168 5.08839L18.6168 5.08839ZM18.6168 10.3168L18.6168 5.08839L17.6168 5.08839L17.6168 10.3168L18.6168 10.3168ZM16.6872 12.4507C17.8125 12.4507 18.6168 11.4294 18.6168 10.3168L17.6168 10.3168C17.6168 11.0067 17.139 11.4507 16.6872 11.4507L16.6872 12.4507ZM13.8279 12.4507L16.6872 12.4507L16.6872 11.4507L13.8279 11.4507L13.8279 12.4507ZM13.042 11.6239C13.042 12.0157 13.3333 12.4507 13.8279 12.4507L13.8279 11.4507C13.9107 11.4507 13.971 11.4902 14.0021 11.5257C14.0323 11.5603 14.042 11.5964 14.042 11.6239L13.042 11.6239ZM13.042 11.4991L13.042 11.6239L14.042 11.6239L14.042 11.4991L13.042 11.4991ZM13.7266 11.9704L13.7947 11.9306L13.2893 11.0676L13.2213 11.1075L13.7266 11.9704ZM12.29 15.8038L13.9375 11.7263L13.0103 11.3516L11.3628 15.4292L12.29 15.8038ZM12.3264 17.8327L12.3264 15.6165L11.3264 15.6165L11.3264 17.8327L12.3264 17.8327ZM12.0559 18.4576C12.2371 18.2922 12.3264 18.0594 12.3264 17.8327L11.3264 17.8327C11.3264 17.8045 11.3368 17.76 11.3819 17.7188L12.0559 18.4576ZM12.0501 18.4628L12.0507 18.4622L11.3871 17.7141L11.3865 17.7147L12.0501 18.4628ZM10.6827 18.9862C11.4669 18.9862 12.0105 18.4979 12.0503 18.4626L11.3863 17.7149C11.3758 17.7242 11.0744 17.9862 10.6827 17.9862L10.6827 18.9862ZM8.46711 15.872C8.46711 16.7018 8.77374 17.4562 9.17231 18.0046C9.37219 18.2797 9.6041 18.5154 9.84871 18.6867C10.0855 18.8525 10.3755 18.9862 10.6827 18.9862L10.6827 17.9862C10.6591 17.9862 10.5692 17.9704 10.4223 17.8675C10.2832 17.7701 10.1276 17.6181 9.98125 17.4167C9.68745 17.0125 9.46711 16.4598 9.46711 15.872L8.46711 15.872ZM8.94186 13.1193C8.76602 13.7295 8.46711 14.9015 8.46711 15.872L9.46711 15.872C9.46711 15.0544 9.72862 14.0005 9.90275 13.3963L8.94186 13.1193ZM5.88994 13.7578L9.42231 13.7578L9.42231 12.7578L5.88994 12.7578L5.88994 13.7578ZM3.90015 11.8163C3.98523 12.8726 4.82678 13.7578 5.88994 13.7578L5.88994 12.7578C5.41369 12.7578 4.94566 12.3411 4.89693 11.736L3.90015 11.8163ZM4.37403 10.2163C4.02329 10.6549 3.85338 11.2301 3.90012 11.816L4.89696 11.7364C4.86934 11.3904 4.97162 11.0702 5.15501 10.8408L4.37403 10.2163ZM5.66581 9.18881C5.99876 9.14344 6.23441 8.89474 6.31714 8.61246L5.3575 8.33122C5.36935 8.29078 5.41854 8.21327 5.53077 8.19798L5.66581 9.18881ZM5.46412 9.49984C5.4641 9.28976 5.59631 9.19799 5.66371 9.1891L5.53287 8.19769C4.87742 8.2842 4.46408 8.88522 4.46412 9.4999L5.46412 9.49984ZM5.60699 9.78969C5.53581 9.74834 5.46412 9.64641 5.46412 9.49987L4.46412 9.49987C4.46412 9.96242 4.69206 10.4147 5.10467 10.6544L5.60699 9.78969ZM6.01051 10.4836C6.00143 10.2148 5.86542 9.94292 5.61087 9.79197L5.10079 10.6521C5.02922 10.6097 5.01217 10.5496 5.01108 10.5173L6.01051 10.4836ZM5.66255 11.2005C5.90394 11.031 6.01953 10.7506 6.01051 10.4836L5.01108 10.5173C5.01045 10.4986 5.01402 10.4776 5.02424 10.4557C5.03439 10.434 5.05377 10.4061 5.08798 10.382L5.66255 11.2005ZM5.46646 11.6755C5.44907 11.4618 5.54108 11.2862 5.66345 11.1999L5.08708 10.3827C4.64792 10.6924 4.42651 11.2252 4.46976 11.7566L5.46646 11.6755ZM5.88994 12.1042C5.69293 12.1042 5.48723 11.9339 5.4665 11.676L4.46972 11.7561C4.52903 12.4942 5.13309 13.1042 5.88994 13.1042L5.88994 12.1042ZM9.8249 12.1042L5.88994 12.1042L5.88994 13.1042L9.8249 13.1042L9.8249 12.1042ZM10.4875 12.4853C10.3546 12.2671 10.1142 12.1042 9.8249 12.1042L9.8249 13.1042C9.7231 13.1042 9.65893 13.0473 9.63349 13.0055L10.4875 12.4853ZM10.5665 13.2047C10.6439 12.9713 10.6199 12.7065 10.4895 12.4887L9.63145 13.0021C9.61839 12.9803 9.61294 12.96 9.61124 12.9436C9.60954 12.9271 9.61101 12.9091 9.61736 12.89L10.5665 13.2047ZM10.5663 13.2054C10.5666 13.2046 10.5669 13.2036 10.5672 13.2028C10.5673 13.2024 10.5675 13.2018 10.5677 13.2012C10.5678 13.2009 10.5683 13.1992 10.5689 13.1972L9.61493 12.8975C9.61528 12.8964 9.61555 12.8955 9.61566 12.8952C9.61579 12.8948 9.61589 12.8944 9.61594 12.8943C9.61603 12.894 9.61608 12.8939 9.61603 12.894C9.61594 12.8943 9.61577 12.8948 9.61546 12.8958L10.5663 13.2054ZM10.039 15.872C10.039 15.3709 10.1582 14.7338 10.2906 14.1885C10.4209 13.652 10.5545 13.2416 10.5663 13.2054L9.61544 12.8959C9.60004 12.9432 9.45771 13.3807 9.31884 13.9525C9.18211 14.5155 9.03896 15.2474 9.03896 15.872L10.039 15.872ZM10.6827 17.3327C10.7524 17.3327 10.7853 17.3542 10.7677 17.3454C10.7567 17.3399 10.7297 17.3238 10.6892 17.2905C10.6085 17.2242 10.5057 17.1155 10.4044 16.9691C10.1999 16.6739 10.039 16.2812 10.039 15.872L9.03896 15.872C9.03896 16.5333 9.29318 17.121 9.58224 17.5384C9.72764 17.7484 9.89122 17.9291 10.0543 18.0632C10.1357 18.13 10.225 18.1919 10.3194 18.2393C10.4072 18.2833 10.5346 18.3327 10.6827 18.3327L10.6827 17.3327ZM10.9875 17.2328C10.9078 17.2832 10.7959 17.3327 10.6827 17.3327L10.6827 18.3327C11.0624 18.3327 11.3634 18.1782 11.5216 18.0783L10.9875 17.2328ZM10.7546 15.5452L10.7546 17.6556L11.7546 17.6556L11.7546 15.5453L10.7546 15.5452ZM10.8163 15.2232C10.7759 15.3247 10.7546 15.4345 10.7546 15.5452L11.7546 15.5453C11.7546 15.5619 11.7515 15.5776 11.7455 15.5928L10.8163 15.2232ZM12.5328 10.9727L10.8172 15.2208L11.7445 15.5952L13.4601 11.3471L12.5328 10.9727ZM12.8817 10.5699C12.7151 10.6641 12.5984 10.8119 12.5335 10.9711L13.4594 11.3487C13.4494 11.3733 13.4253 11.4113 13.3742 11.4402L12.8817 10.5699ZM13.2938 10.3344L12.8799 10.5709L13.3761 11.4391L13.79 11.2026L13.2938 10.3344ZM13.0419 5.23879L13.0419 10.7685L14.0419 10.7685L14.0419 5.23879L13.0419 5.23879ZM12.1123 5.26161C12.2561 5.26161 12.4791 5.29948 12.7109 5.37447C12.9472 5.45092 13.1298 5.54572 13.2206 5.62185L13.8633 4.85574C13.6315 4.66134 13.3109 4.51755 13.0187 4.42303C12.7221 4.32706 12.3916 4.26161 12.1123 4.26161L12.1123 5.26161ZM6.8632 5.26161L12.1123 5.26161L12.1123 4.26161L6.8632 4.26161L6.8632 5.26161ZM6.61702 5.48502C6.6446 5.34202 6.75959 5.26161 6.8632 5.26161L6.8632 4.26161C6.25313 4.26161 5.74821 4.70928 5.63512 5.29564L6.61702 5.48502ZM6.69946 5.82978C6.62945 5.75439 6.58787 5.63581 6.61698 5.48525L5.63516 5.29542C5.55104 5.73048 5.66043 6.18049 5.96672 6.51029L6.69946 5.82978ZM6.889 6.64974C6.969 6.37236 6.90833 6.05509 6.69977 5.83011L5.96641 6.50995C5.94186 6.48346 5.93066 6.45646 5.92613 6.43594C5.92157 6.41533 5.922 6.39398 5.92816 6.37263L6.889 6.64974ZM6.23707 7.22816C6.57002 7.18278 6.80567 6.93408 6.8884 6.65181L5.92876 6.37056C5.94061 6.33012 5.9898 6.25261 6.10203 6.23732L6.23707 7.22816ZM6.03594 7.53921C6.03594 7.32888 6.16838 7.23724 6.23508 7.22843L6.10402 6.23705C5.44905 6.32363 5.03594 6.92478 5.03594 7.53921L6.03594 7.53921ZM6.12798 7.7902C6.0733 7.73139 6.03594 7.64456 6.03594 7.53921L5.03594 7.53921C5.03594 7.88353 5.15984 8.21756 5.39568 8.47118L6.12798 7.7902ZM6.31774 8.6104C6.39774 8.33301 6.33707 8.01574 6.12851 7.79076L5.39515 8.47061C5.3706 8.44412 5.3594 8.41712 5.35487 8.3966C5.35031 8.37599 5.35074 8.35463 5.3569 8.33328L6.31774 8.6104ZM14.6137 5.1032C14.6138 5.0983 14.6138 5.09336 14.6138 5.08839L13.6138 5.08839C13.6138 5.08766 13.6138 5.08696 13.6139 5.08629L14.6137 5.1032ZM14.6138 5.08839C14.6138 4.75923 14.8355 4.60806 14.9716 4.60806L14.9716 3.60806C14.1619 3.60806 13.6138 4.33655 13.6138 5.08839L14.6138 5.08839ZM14.9716 4.60806L16.6872 4.60806L16.6872 3.60806L14.9716 3.60806L14.9716 4.60806ZM16.6872 4.60806C16.8234 4.60806 17.045 4.75923 17.045 5.08839L18.045 5.08839C18.045 4.33656 17.4969 3.60806 16.6872 3.60806L16.6872 4.60806ZM17.045 5.08839L17.045 10.3168L18.045 10.3168L18.045 5.08839L17.045 5.08839ZM17.045 10.3168C17.045 10.646 16.8234 10.7972 16.6872 10.7972L16.6872 11.7972C17.4969 11.7972 18.045 11.0687 18.045 10.3168L17.045 10.3168ZM16.6872 10.7972L14.1138 10.7972L14.1138 11.7972L16.6872 11.7972L16.6872 10.7972ZM14.6138 11.2972L14.6138 10.9704L13.6138 10.9704L13.6138 11.2972L14.6138 11.2972ZM14.6138 10.9704C14.6138 10.9654 14.6138 10.9605 14.6137 10.9556L13.6139 10.9725C13.6138 10.9718 13.6138 10.9711 13.6138 10.9704L14.6138 10.9704ZM14.6138 10.964L14.6138 5.09474L13.6138 5.09474L13.6138 10.964L14.6138 10.964Z" fill="#EB1537" mask="url(#path-1-outside-1)"/>
</svg>
