<svg width="24" height="24" viewBox="0 0 24 24" fill="none" xmlns="http://www.w3.org/2000/svg">
<path d="M15.0729 2H8.92707C7.29074 2 5.67641 2.57508 4.38473 3.69836V2.78125C4.38473 2.34977 4.03496 2 3.60348 2C3.17199 2 2.82223 2.34977 2.82223 2.78125V5.85418C2.82223 6.28566 3.175 6.63543 3.60348 6.63543H6.67641C7.10789 6.63543 7.45766 6.28566 7.45766 5.85418C7.45766 5.4227 7.10789 5.07293 6.67641 5.07293H5.19855C6.18738 4.11961 7.52219 3.5625 8.92707 3.5625H15.0729C18.031 3.5625 20.4375 5.96902 20.4375 8.92707V15.0729C20.4375 18.031 18.031 20.4375 15.0729 20.4375H8.92707C5.96902 20.4375 3.5625 18.031 3.5625 15.0729V12C3.5625 11.5685 3.21273 11.2188 2.78125 11.2188C2.34977 11.2188 2 11.5685 2 12V15.0729C2 18.8925 5.10746 22 8.92707 22H15.0729C18.8925 22 22 18.8925 22 15.0729V8.92707C22 5.10746 18.8925 2 15.0729 2Z" fill="#EB1537" stroke="#EB1537" stroke-width="0.5"/>
<path d="M12.4512 11.5114V7.22559C12.4512 6.7941 12.1014 6.44434 11.6699 6.44434C11.2384 6.44434 10.8887 6.7941 10.8887 7.22559V11.835C10.8887 12.0421 10.971 12.2409 11.1175 12.3874L14.1904 15.4603C14.4955 15.7654 14.9902 15.7654 15.2953 15.4603C15.6004 15.1552 15.6004 14.6606 15.2953 14.3555L12.4512 11.5114Z" fill="#EB1537" stroke="#EB1537" stroke-width="0.5"/>
</svg>
