<svg width="16" height="18" viewBox="0 0 16 18" fill="none" xmlns="http://www.w3.org/2000/svg">
<path fill-rule="evenodd" clip-rule="evenodd" d="M8 2.45535L2.16667 5.73701V5.85785C2.16667 9.80785 4.305 13.4653 7.74833 15.4028L8 15.5445L8.25167 15.4028C11.695 13.4653 13.8333 9.80785 13.8333 5.85785V5.73701L8 2.45535ZM8 17.2087C7.7175 17.2087 7.435 17.1387 7.18417 16.997L6.93167 16.8545C2.96417 14.6237 0.5 10.4095 0.5 5.85786V5.73702C0.5 5.13786 0.825 4.58119 1.34833 4.28536L7.18333 1.00369C7.6875 0.720355 8.31333 0.719522 8.81583 1.00286L14.65 4.28452C15.175 4.58119 15.5 5.13786 15.5 5.73702V5.85786C15.5 10.4095 13.0358 14.6237 9.06833 16.8545L8.81667 16.9962C8.565 17.1379 8.2825 17.2087 8 17.2087Z" fill="#29C05C"/>
</svg>
