<svg width="14" height="18" viewBox="0 0 14 18" fill="none" xmlns="http://www.w3.org/2000/svg">
<path fill-rule="evenodd" clip-rule="evenodd" d="M6.99992 8.16633C6.31075 8.16633 5.74992 7.6055 5.74992 6.91633C5.74992 6.22716 6.31075 5.66633 6.99992 5.66633C7.68909 5.66633 8.24992 6.22716 8.24992 6.91633C8.24992 7.6055 7.68909 8.16633 6.99992 8.16633ZM6.99992 3.99966C5.39158 3.99966 4.08325 5.308 4.08325 6.91633C4.08325 8.52466 5.39158 9.833 6.99992 9.833C8.60825 9.833 9.91658 8.52466 9.91658 6.91633C9.91658 5.308 8.60825 3.99966 6.99992 3.99966ZM6.99992 15.3717C5.60408 14.0517 1.99992 10.3459 1.99992 7.26841C1.99992 4.54758 4.24242 2.33341 6.99992 2.33341C9.75742 2.33341 11.9999 4.54758 11.9999 7.26841C11.9999 10.3459 8.39575 14.0517 6.99992 15.3717ZM6.99992 0.666748C3.32409 0.666748 0.333252 3.62758 0.333252 7.26841C0.333252 11.8309 6.20742 16.9176 6.45742 17.1317C6.61408 17.2659 6.80658 17.3334 6.99992 17.3334C7.19325 17.3334 7.38575 17.2659 7.54242 17.1317C7.79242 16.9176 13.6666 11.8309 13.6666 7.26841C13.6666 3.62758 10.6758 0.666748 6.99992 0.666748Z" fill="#12BF6C"/>
</svg>
