<svg width="19" height="16" viewBox="0 0 19 16" fill="none" xmlns="http://www.w3.org/2000/svg">
<path fill-rule="evenodd" clip-rule="evenodd" d="M5.3173 2.25C4.5613 2.25 3.85255 2.54225 3.3223 3.07337C2.22155 4.17587 2.22155 5.9705 3.32318 7.07475L9.4998 13.2619L15.6773 7.07475C16.7789 5.9705 16.7789 4.17587 15.6773 3.07337C14.6168 2.01025 12.7478 2.012 11.6873 3.07337L10.1193 4.644C9.7903 4.97388 9.2093 4.97388 8.8803 4.644L7.3123 3.0725C6.78205 2.54225 6.07418 2.25 5.3173 2.25ZM9.4998 15.375C9.26792 15.375 9.0448 15.2831 8.88117 15.1177L2.08417 8.31025C0.302672 6.52525 0.302672 3.62112 2.08417 1.83612C2.94517 0.975125 4.09317 0.5 5.3173 0.5C6.54142 0.5 7.6903 0.975125 8.55042 1.83612L9.4998 2.78725L10.4492 1.837C11.3102 0.975125 12.4582 0.5 13.6832 0.5C14.9064 0.5 16.0553 0.975125 16.9154 1.83612C18.6978 3.62112 18.6978 6.52525 16.9163 8.31025L10.1193 15.1186C9.9548 15.2831 9.73255 15.375 9.4998 15.375Z" fill="#EB1537"/>
</svg>
