<svg width="16" height="17" viewBox="0 0 16 17" fill="none" xmlns="http://www.w3.org/2000/svg">
<path fill-rule="evenodd" clip-rule="evenodd" d="M5.375 9.375V8.5C5.375 7.05275 6.55275 5.875 8 5.875H8.875V2.95863C8.875 2.63663 8.61337 2.375 8.29138 2.375H2.45863C2.13663 2.375 1.875 2.63663 1.875 2.95863V8.79138C1.875 9.11337 2.13663 9.375 2.45863 9.375H5.375ZM5.375 11.125H2.45863C1.1715 11.125 0.125 10.0785 0.125 8.79138V2.95863C0.125 1.6715 1.1715 0.625 2.45863 0.625H8.29138C9.5785 0.625 10.625 1.6715 10.625 2.95863V5.875H13.25C14.6973 5.875 15.875 7.05275 15.875 8.5V13.75C15.875 15.1973 14.6973 16.375 13.25 16.375H8C6.55275 16.375 5.375 15.1973 5.375 13.75V11.125ZM7.125 8.5C7.125 8.01788 7.51788 7.625 8 7.625H13.25C13.733 7.625 14.125 8.01788 14.125 8.5V13.75C14.125 14.2321 13.733 14.625 13.25 14.625H8C7.51788 14.625 7.125 14.2321 7.125 13.75V8.5Z" fill="#EB1537"/>
</svg>
