<svg width="18" height="18" viewBox="0 0 18 18" fill="none" xmlns="http://www.w3.org/2000/svg">
<g clip-path="url(#clip0)">
<path d="M13.9712 7.00665C13.8677 6.84578 13.69 6.75015 13.4999 6.75015H9.56243V0.562738C9.56243 0.297241 9.37681 0.0677446 9.11694 0.0126204C8.85257 -0.0436289 8.59382 0.0924942 8.48582 0.334366L3.98588 10.4592C3.90826 10.6325 3.92513 10.835 4.02863 10.9936C4.13213 11.1533 4.30988 11.2501 4.5 11.2501H8.43745V17.4375C8.43745 17.703 8.62307 17.9325 8.88294 17.9876C8.92231 17.9955 8.96169 18 8.99994 18C9.21819 18 9.42181 17.8729 9.51406 17.6659L14.014 7.54102C14.0905 7.36664 14.0759 7.1664 13.9712 7.00665Z" fill="#FFA234"/>
</g>
<defs>
<clipPath id="clip0">
<rect width="18" height="18" fill="white"/>
</clipPath>
</defs>
</svg>
