<svg width="18" height="18" viewBox="0 0 18 18" fill="none" xmlns="http://www.w3.org/2000/svg">
<path fill-rule="evenodd" clip-rule="evenodd" d="M16.4976 8.14508H16.5001C16.9593 8.14508 17.3326 8.51675 17.3335 8.97591C17.3401 11.2017 16.4793 13.2976 14.9093 14.8759C13.3401 16.4542 11.2501 17.3267 9.02429 17.3334H9.00012C6.78262 17.3334 4.69679 16.4734 3.12429 14.9092C1.54595 13.3401 0.673453 11.2501 0.666786 9.02425C0.66012 6.79758 1.52095 4.70258 3.09095 3.12425C4.66012 1.54591 6.75012 0.673415 8.97595 0.666748C9.63845 0.676748 10.3135 0.743415 10.9601 0.898415C11.4068 1.00675 11.6826 1.45675 11.5743 1.90425C11.4668 2.35091 11.0143 2.62591 10.5693 2.51925C10.0518 2.39425 9.50262 2.34175 8.98095 2.33341C7.20012 2.33841 5.52762 3.03675 4.27262 4.29925C3.01679 5.56175 2.32845 7.23841 2.33345 9.01925C2.33845 10.8001 3.03679 12.4717 4.29929 13.7276C5.55762 14.9784 7.22595 15.6667 9.00012 15.6667H9.01929C10.8001 15.6617 12.4726 14.9634 13.7276 13.7009C14.9835 12.4376 15.6718 10.7617 15.6668 8.98092C15.666 8.52091 16.0376 8.14591 16.4976 8.14508ZM5.91095 8.41083C6.23679 8.085 6.76345 8.085 7.08929 8.41083L8.95929 10.2808L14.2068 4.28417C14.5101 3.94 15.036 3.90333 15.3826 4.20667C15.7285 4.50917 15.7635 5.03583 15.4601 5.3825L9.62679 12.0492C9.47512 12.2225 9.25845 12.325 9.02762 12.3333H9.00012C8.77929 12.3333 8.56762 12.2458 8.41095 12.0892L5.91095 9.58917C5.58512 9.26333 5.58512 8.73667 5.91095 8.41083Z" fill="#29C05C"/>
</svg>
