<svg width="37" height="31" viewBox="0 0 37 31" fill="none" xmlns="http://www.w3.org/2000/svg">
<path d="M14.0397 28.3487C12.9804 28.3487 13.1605 27.9487 12.7951 26.94L9.68018 16.6888L33.6577 2.46387" fill="#C8DAEA"/>
<path d="M14.04 28.3489C14.8575 28.3489 15.2185 27.9751 15.6749 27.5315L20.0344 23.2924L14.5964 20.0132" fill="#A9C9DD"/>
<path d="M14.5966 20.0136L27.7733 29.7488C29.2771 30.5785 30.3621 30.1488 30.7367 28.3529L36.1003 3.07762C36.6493 0.876049 35.2611 -0.122832 33.8225 0.530282L2.32747 12.6746C0.177668 13.537 0.190475 14.7364 1.93566 15.2707L10.018 17.7935L28.7294 5.9887C29.6128 5.45303 30.4236 5.74076 29.7583 6.33147" fill="url(#paint0_linear)"/>
<defs>
<linearGradient id="paint0_linear" x1="24.1341" y1="13.3652" x2="29.2369" y2="24.9913" gradientUnits="userSpaceOnUse">
<stop stop-color="#EFF7FC"/>
<stop offset="1" stop-color="white"/>
</linearGradient>
</defs>
</svg>
