<svg width="22" height="22" viewBox="0 0 22 22" fill="none" xmlns="http://www.w3.org/2000/svg">
<path fill-rule="evenodd" clip-rule="evenodd" d="M14.5 19.1667V14.5H19.1667L19.1678 19.1667H14.5ZM19.1667 12.1667H14.5C13.2132 12.1667 12.1667 13.2132 12.1667 14.5V19.1667C12.1667 20.4535 13.2132 21.5 14.5 21.5H19.1667C20.4535 21.5 21.5 20.4535 21.5 19.1667V14.5C21.5 13.2132 20.4535 12.1667 19.1667 12.1667ZM2.83333 19.1667V14.5H7.5L7.50117 19.1667H2.83333ZM7.5 12.1667H2.83333C1.5465 12.1667 0.5 13.2132 0.5 14.5V19.1667C0.5 20.4535 1.5465 21.5 2.83333 21.5H7.5C8.78683 21.5 9.83333 20.4535 9.83333 19.1667V14.5C9.83333 13.2132 8.78683 12.1667 7.5 12.1667ZM14.5 7.5V2.83333H19.1667L19.1678 7.5H14.5ZM19.1667 0.5H14.5C13.2132 0.5 12.1667 1.5465 12.1667 2.83333V7.5C12.1667 8.78683 13.2132 9.83333 14.5 9.83333H19.1667C20.4535 9.83333 21.5 8.78683 21.5 7.5V2.83333C21.5 1.5465 20.4535 0.5 19.1667 0.5ZM2.83333 7.5V2.83333H7.5L7.50117 7.5H2.83333ZM7.5 0.5H2.83333C1.5465 0.5 0.5 1.5465 0.5 2.83333V7.5C0.5 8.78683 1.5465 9.83333 2.83333 9.83333H7.5C8.78683 9.83333 9.83333 8.78683 9.83333 7.5V2.83333C9.83333 1.5465 8.78683 0.5 7.5 0.5Z" fill="#8A8A8A"/>
</svg>
