<svg width="25" height="24" viewBox="0 0 25 24" fill="none" xmlns="http://www.w3.org/2000/svg">
<path fill-rule="evenodd" clip-rule="evenodd" d="M18.4775 14.5H8.955L6.90875 7H22.2275L18.4775 14.5ZM24.3538 5.685C23.895 4.9425 23.1 4.5 22.2275 4.5H6.2275L5.45625 1.67125C5.3075 1.1275 4.81375 0.75 4.25 0.75H1.75C1.05875 0.75 0.5 1.31 0.5 2C0.5 2.69 1.05875 3.25 1.75 3.25H3.295L6.79375 16.0787C6.9425 16.6225 7.43625 17 8 17H19.25C19.7238 17 20.1563 16.7325 20.3688 16.3087L24.4638 8.1175C24.855 7.33625 24.8125 6.4275 24.3538 5.685ZM7.37525 19.5C6.34025 19.5 5.50025 20.3388 5.50025 21.375C5.50025 22.4112 6.34025 23.25 7.37525 23.25C8.41025 23.25 9.25025 22.4112 9.25025 21.375C9.25025 20.3388 8.41025 19.5 7.37525 19.5ZM18.0002 21.375C18.0002 20.3388 18.8402 19.5 19.8752 19.5C20.9102 19.5 21.7502 20.3388 21.7502 21.375C21.7502 22.4112 20.9102 23.25 19.8752 23.25C18.8402 23.25 18.0002 22.4112 18.0002 21.375Z" fill="#8A8A8A"/>
</svg>
