<svg width="9" height="12" viewBox="0 0 9 12" fill="none" xmlns="http://www.w3.org/2000/svg">
<path fill-rule="evenodd" clip-rule="evenodd" d="M8.08959 8.68193L4.83959 11.2971C4.63863 11.459 4.35155 11.4563 4.15276 11.2911L0.902757 8.5828C0.774382 8.47555 0.708299 8.32172 0.708299 8.16626C0.708299 8.04384 0.749466 7.92143 0.833424 7.81959C1.02517 7.58993 1.36697 7.55905 1.59717 7.75026L4.50592 10.1753L7.41034 7.83747C7.6438 7.65059 7.98451 7.68688 8.17192 7.92034C8.36042 8.15326 8.32251 8.49397 8.08959 8.68193ZM8.09694 3.41709C8.32661 3.6083 8.35749 3.94901 8.16628 4.1803C7.97453 4.40996 7.63328 4.44084 7.40307 4.24963L4.49432 1.82459L1.58936 4.16242C1.35645 4.3493 1.01574 4.31301 0.827781 4.07955C0.747615 3.97988 0.708073 3.85963 0.708073 3.74046C0.708073 3.5823 0.777406 3.42521 0.910114 3.31796L4.16011 0.702798C4.36161 0.54084 4.6487 0.543549 4.84695 0.708757L8.09694 3.41709Z" fill="#333333"/>
</svg>
