<svg width="20" height="22" viewBox="0 0 20 22" fill="none" xmlns="http://www.w3.org/2000/svg">
<path fill-rule="evenodd" clip-rule="evenodd" d="M17.5725 19.6667H14.3333V12.0833C14.3333 11.4842 13.848 11 13.25 11H6.75C6.15092 11 5.66667 11.4842 5.66667 12.0833V19.6667H2.41667L2.42317 10.5482L9.99783 2.80133L17.5833 10.5927L17.5725 19.6667ZM7.83333 19.6667H12.1667V13.1667H7.83333V19.6667ZM19.126 9.03374L10.7746 0.492744C10.3662 0.0756608 9.63383 0.0756608 9.22542 0.492744L0.872917 9.03483C0.4775 9.44108 0.25 10.0087 0.25 10.5927V19.6667C0.25 20.8616 1.16758 21.8333 2.29533 21.8333H6.75H13.25H17.7036C18.8313 21.8333 19.75 20.8616 19.75 19.6667V10.5927C19.75 10.0087 19.5225 9.44108 19.126 9.03374Z" fill="#EB1537"/>
</svg>
