<svg width="18" height="16" viewBox="0 0 18 16" fill="none" xmlns="http://www.w3.org/2000/svg">
<path fill-rule="evenodd" clip-rule="evenodd" d="M14.8334 13C14.8334 13.46 14.4601 13.8333 14.0001 13.8333C13.5401 13.8333 13.1667 13.46 13.1667 13C13.1667 12.54 13.5401 12.1667 14.0001 12.1667C14.4601 12.1667 14.8334 12.54 14.8334 13ZM9.00008 10.5H2.33341L2.34675 2.16667H11.5001L11.4867 10.5H9.00008ZM4.83341 13C4.83341 13.46 4.46008 13.8333 4.00008 13.8333C3.54008 13.8333 3.16675 13.46 3.16675 13C3.16675 12.54 3.54008 12.1667 4.00008 12.1667C4.46008 12.1667 4.83341 12.54 4.83341 13ZM15.6667 8.4V10.5H13.1667V6.40084L15.6667 8.4ZM17.0209 7.34917L13.1667 4.26583V2.16667C13.1667 1.2475 12.4892 0.5 11.6559 0.5H2.17675C1.34425 0.5 0.666748 1.2475 0.666748 2.16667V10.5C0.666748 11.2275 1.09425 11.8408 1.68425 12.0683C1.56758 12.3567 1.50008 12.67 1.50008 13C1.50008 14.3783 2.62175 15.5 4.00008 15.5C5.37842 15.5 6.50008 14.3783 6.50008 13C6.50008 12.7058 6.44008 12.4283 6.34591 12.1667H9.00008H11.6542C11.5601 12.4283 11.5001 12.7058 11.5001 13C11.5001 14.3783 12.6217 15.5 14.0001 15.5C15.3784 15.5 16.5001 14.3783 16.5001 13C16.5001 12.7058 16.4401 12.4283 16.3459 12.1667H16.5001C16.9609 12.1667 17.3334 11.7942 17.3334 11.3333V8C17.3334 7.74667 17.2184 7.5075 17.0209 7.34917Z" fill="#29C05C"/>
</svg>
