<svg width="9" height="12" viewBox="0 0 9 12" fill="none" xmlns="http://www.w3.org/2000/svg">
<path fill-rule="evenodd" clip-rule="evenodd" d="M8.08959 8.68186L4.83959 11.297C4.63863 11.459 4.35155 11.4563 4.15276 11.2911L0.902757 8.58274C0.774382 8.47549 0.708299 8.32166 0.708299 8.1662C0.708299 8.04378 0.749466 7.92136 0.833424 7.81953C1.02517 7.58987 1.36697 7.55899 1.59717 7.7502L4.50592 10.1752L7.41034 7.83741C7.6438 7.65053 7.98451 7.68682 8.17192 7.92028C8.36042 8.1532 8.32251 8.49391 8.08959 8.68186ZM8.09694 3.41703C8.32661 3.60824 8.35749 3.94895 8.16628 4.18024C7.97453 4.4099 7.63328 4.44078 7.40307 4.24957L4.49432 1.82453L1.58936 4.16236C1.35645 4.34924 1.01574 4.31294 0.827781 4.07949C0.747615 3.97982 0.708073 3.85957 0.708073 3.7404C0.708073 3.58224 0.777406 3.42515 0.910114 3.3179L4.16011 0.702737C4.36161 0.540779 4.6487 0.543488 4.84695 0.708696L8.09694 3.41703Z" fill="#333333"/>
</svg>
