<svg width="15" height="13" viewBox="0 0 15 13" fill="none" xmlns="http://www.w3.org/2000/svg">
<path fill-rule="evenodd" clip-rule="evenodd" d="M11.397 12.9998C11.2847 12.9998 11.1725 12.9744 11.0701 12.9223L7.47067 11.0952L3.87122 12.9223C3.63262 13.043 3.34461 13.0217 3.12931 12.8681C2.91189 12.7145 2.80388 12.4545 2.84906 12.1974L3.53521 8.33755L0.626849 5.60454C0.432723 5.4228 0.363543 5.14984 0.446135 4.90089C0.528021 4.65194 0.749677 4.47088 1.01581 4.43316L5.04021 3.8653L6.83817 0.34977C7.07677 -0.11659 7.86457 -0.11659 8.10317 0.34977L9.90113 3.8653L13.9255 4.43316C14.1917 4.47088 14.4133 4.65194 14.4952 4.90089C14.5778 5.14984 14.5086 5.4228 14.3145 5.60454L11.4061 8.33755L12.0923 12.1974C12.1375 12.4545 12.0295 12.7145 11.812 12.8681C11.6899 12.9559 11.5438 12.9998 11.397 12.9998Z" fill="#FF730B"/>
</svg>
