<svg width="22" height="22" viewBox="0 0 22 22" fill="none" xmlns="http://www.w3.org/2000/svg">
<mask id="path-1-outside-1" maskUnits="userSpaceOnUse" x="2.88312" y="2.51373" width="16" height="17" fill="black">
<rect fill="white" x="2.88312" y="2.51373" width="16" height="17"/>
<path fill-rule="evenodd" clip-rule="evenodd" d="M17.2354 11.4714C17.471 11.7413 17.6077 12.1073 17.6077 12.5001C17.6077 13.0667 17.3241 13.5647 16.902 13.8078C16.9895 14.0078 17.0359 14.2294 17.0359 14.4607C17.0359 15.0274 16.7516 15.526 16.3296 15.7685C16.46 16.0665 16.4983 16.4096 16.4325 16.7508C16.3045 17.4122 15.7595 17.8919 15.1367 17.8919L9.88763 17.8919C9.49018 17.8919 8.8497 17.7448 8.3739 17.4651C8.17489 18.0945 7.6465 18.5454 7.02833 18.5454L5.31275 18.5454C4.52418 18.5454 3.88312 17.8128 3.88312 16.9115L3.88312 11.6831C3.88312 10.7819 4.52418 10.0492 5.31275 10.0492L8.17203 10.0492C8.32986 10.0492 8.45796 10.1956 8.45796 10.376L8.45796 10.5008L8.52602 10.461L10.1735 6.38346L10.1735 4.16728C10.1735 4.06796 10.213 3.97385 10.2811 3.91175L10.2817 3.9112C10.3068 3.88886 10.7293 3.51373 11.3173 3.51373C11.9789 3.51373 13.0328 4.71038 13.0328 6.12793C13.0328 7.02199 12.7526 8.13497 12.5776 8.74213L16.11 8.74213C16.8797 8.74213 17.5345 9.39307 17.6014 10.2237C17.6386 10.6897 17.5025 11.1374 17.2354 11.4714ZM16.1626 13.5281C16.1981 13.4072 16.2913 13.3216 16.4017 13.3065C16.7631 13.2588 17.0359 12.9125 17.0358 12.5001C17.0358 12.1955 16.886 11.9184 16.6441 11.7779C16.5526 11.7237 16.4932 11.6178 16.4892 11.4995C16.4852 11.3812 16.5372 11.2701 16.6247 11.2087C16.9055 11.0106 17.0622 10.6564 17.0318 10.2839C16.9918 9.78588 16.5869 9.39571 16.11 9.39571L12.1751 9.39571C12.0813 9.39571 11.9932 9.34277 11.9395 9.25454C11.8863 9.16567 11.8749 9.05259 11.908 8.9526C11.9081 8.95225 11.9085 8.95115 11.9091 8.94933C11.9363 8.86575 12.461 7.25367 12.461 6.12793C12.461 5.05742 11.6307 4.16728 11.3173 4.16728C11.0708 4.16728 10.8644 4.26923 10.7454 4.34438L10.7454 6.45469C10.7454 6.50175 10.7362 6.5488 10.7191 6.59194L9.00352 10.84C8.97607 10.9073 8.92975 10.9622 8.87198 10.9949L8.45805 11.2315L8.45804 16.7611C8.78051 17.0317 9.46459 17.2383 9.88763 17.2383L15.1367 17.2383C15.4936 17.2383 15.8035 16.9743 15.8739 16.6096C15.9305 16.3168 15.855 16.0325 15.6669 15.8299C15.5857 15.7423 15.5565 15.6097 15.5914 15.4888C15.6268 15.3678 15.72 15.2822 15.8304 15.2672C16.1912 15.2195 16.464 14.8731 16.464 14.4607C16.464 14.2359 16.3834 14.0255 16.2381 13.8693C16.1569 13.7817 16.1278 13.649 16.1626 13.5281ZM7.88617 16.9052C7.88613 16.9073 7.88611 16.9094 7.88611 16.9115C7.88611 17.452 7.50126 17.8919 7.02833 17.8919L5.31275 17.8919C4.83982 17.8919 4.45496 17.452 4.45496 16.9115L4.45497 11.6831C4.45497 11.1426 4.83982 10.7028 5.31275 10.7028L7.88611 10.7028L7.88611 11.0296C7.88611 11.0317 7.88613 11.0338 7.88617 11.0359L7.88617 16.9052Z"/>
</mask>
<path fill-rule="evenodd" clip-rule="evenodd" d="M17.2354 11.4714C17.471 11.7413 17.6077 12.1073 17.6077 12.5001C17.6077 13.0667 17.3241 13.5647 16.902 13.8078C16.9895 14.0078 17.0359 14.2294 17.0359 14.4607C17.0359 15.0274 16.7516 15.526 16.3296 15.7685C16.46 16.0665 16.4983 16.4096 16.4325 16.7508C16.3045 17.4122 15.7595 17.8919 15.1367 17.8919L9.88763 17.8919C9.49018 17.8919 8.8497 17.7448 8.3739 17.4651C8.17489 18.0945 7.6465 18.5454 7.02833 18.5454L5.31275 18.5454C4.52418 18.5454 3.88312 17.8128 3.88312 16.9115L3.88312 11.6831C3.88312 10.7819 4.52418 10.0492 5.31275 10.0492L8.17203 10.0492C8.32986 10.0492 8.45796 10.1956 8.45796 10.376L8.45796 10.5008L8.52602 10.461L10.1735 6.38346L10.1735 4.16728C10.1735 4.06796 10.213 3.97385 10.2811 3.91175L10.2817 3.9112C10.3068 3.88886 10.7293 3.51373 11.3173 3.51373C11.9789 3.51373 13.0328 4.71038 13.0328 6.12793C13.0328 7.02199 12.7526 8.13497 12.5776 8.74213L16.11 8.74213C16.8797 8.74213 17.5345 9.39307 17.6014 10.2237C17.6386 10.6897 17.5025 11.1374 17.2354 11.4714ZM16.1626 13.5281C16.1981 13.4072 16.2913 13.3216 16.4017 13.3065C16.7631 13.2588 17.0359 12.9125 17.0358 12.5001C17.0358 12.1955 16.886 11.9184 16.6441 11.7779C16.5526 11.7237 16.4932 11.6178 16.4892 11.4995C16.4852 11.3812 16.5372 11.2701 16.6247 11.2087C16.9055 11.0106 17.0622 10.6564 17.0318 10.2839C16.9918 9.78588 16.5869 9.39571 16.11 9.39571L12.1751 9.39571C12.0813 9.39571 11.9932 9.34277 11.9395 9.25454C11.8863 9.16567 11.8749 9.05259 11.908 8.9526C11.9081 8.95225 11.9085 8.95115 11.9091 8.94933C11.9363 8.86575 12.461 7.25367 12.461 6.12793C12.461 5.05742 11.6307 4.16728 11.3173 4.16728C11.0708 4.16728 10.8644 4.26923 10.7454 4.34438L10.7454 6.45469C10.7454 6.50175 10.7362 6.5488 10.7191 6.59194L9.00352 10.84C8.97607 10.9073 8.92975 10.9622 8.87198 10.9949L8.45805 11.2315L8.45804 16.7611C8.78051 17.0317 9.46459 17.2383 9.88763 17.2383L15.1367 17.2383C15.4936 17.2383 15.8035 16.9743 15.8739 16.6096C15.9305 16.3168 15.855 16.0325 15.6669 15.8299C15.5857 15.7423 15.5565 15.6097 15.5914 15.4888C15.6268 15.3678 15.72 15.2822 15.8304 15.2672C16.1912 15.2195 16.464 14.8731 16.464 14.4607C16.464 14.2359 16.3834 14.0255 16.2381 13.8693C16.1569 13.7817 16.1278 13.649 16.1626 13.5281ZM7.88617 16.9052C7.88613 16.9073 7.88611 16.9094 7.88611 16.9115C7.88611 17.452 7.50126 17.8919 7.02833 17.8919L5.31275 17.8919C4.83982 17.8919 4.45496 17.452 4.45496 16.9115L4.45497 11.6831C4.45497 11.1426 4.83982 10.7028 5.31275 10.7028L7.88611 10.7028L7.88611 11.0296C7.88611 11.0317 7.88613 11.0338 7.88617 11.0359L7.88617 16.9052Z" fill="#12BF6C"/>
<path d="M17.2354 11.4714L16.8449 11.1591L16.584 11.4854L16.8587 11.8002L17.2354 11.4714ZM16.902 13.8078L16.6525 13.3746L16.2645 13.5981L16.444 14.0082L16.902 13.8078ZM16.3296 15.7685L16.0805 15.3349L15.6919 15.5582L15.8715 15.9689L16.3296 15.7685ZM16.4325 16.7508L16.9234 16.8458L16.9235 16.8454L16.4325 16.7508ZM15.1367 17.8919L15.1367 18.3919L15.1367 17.8919ZM9.88763 17.8919L9.88763 17.3919L9.88763 17.8919ZM8.3739 17.4651L8.62731 17.0341L8.08635 16.716L7.89716 17.3144L8.3739 17.4651ZM5.31275 10.0492L5.31275 9.54922L5.31273 9.54922L5.31275 10.0492ZM8.17203 10.0492L8.17203 10.5492L8.17203 10.0492ZM8.45796 10.5008L7.95796 10.5008L7.95796 11.3731L8.71063 10.9323L8.45796 10.5008ZM8.52602 10.461L8.77869 10.8924L8.92576 10.8063L8.98961 10.6483L8.52602 10.461ZM10.1735 6.38346L10.6371 6.57077L10.6735 6.48066L10.6735 6.38346L10.1735 6.38346ZM10.2811 3.91175L9.94924 3.53766L9.94405 3.54239L10.2811 3.91175ZM10.2817 3.9112L10.6135 4.28526L10.6137 4.28508L10.2817 3.9112ZM12.5776 8.74213L12.0972 8.60366L11.9132 9.24213L12.5776 9.24213L12.5776 8.74213ZM16.11 8.74213L16.11 9.24213L16.11 8.74213ZM17.6014 10.2237L18.0998 10.184L18.0998 10.1836L17.6014 10.2237ZM16.4017 13.3065L16.3362 12.8108L16.3341 12.8111L16.4017 13.3065ZM16.1626 13.5281L15.6828 13.3875L15.6822 13.3895L16.1626 13.5281ZM17.0358 12.5001L16.5358 12.5001L16.5358 12.5001L17.0358 12.5001ZM16.6441 11.7779L16.3891 12.208L16.393 12.2102L16.6441 11.7779ZM16.4892 11.4995L15.9894 11.5164L16.4892 11.4995ZM16.6247 11.2087L16.912 11.6179L16.9129 11.6173L16.6247 11.2087ZM17.0318 10.2839L16.5334 10.3239L16.5335 10.3244L17.0318 10.2839ZM16.11 9.39571L16.11 9.89571L16.11 9.39571ZM12.1751 9.39571L12.1751 8.89571L12.1751 9.39571ZM11.9395 9.25454L11.5104 9.51129L11.5124 9.51466L11.9395 9.25454ZM11.908 8.9526L12.3827 9.10999L12.385 9.10248L11.908 8.9526ZM11.9091 8.94933L12.3845 9.10416L12.3845 9.10409L11.9091 8.94933ZM12.461 6.12793L11.961 6.12793L11.961 6.12793L12.461 6.12793ZM10.7454 4.34438L10.4784 3.92166L10.2454 4.06882L10.2454 4.34438L10.7454 4.34438ZM10.7454 6.45469L11.2454 6.45469L10.7454 6.45469ZM10.7191 6.59194L11.1827 6.77917L11.1837 6.77672L10.7191 6.59194ZM9.00352 10.84L9.4665 11.0289L9.46714 11.0273L9.00352 10.84ZM8.87198 10.9949L8.62574 10.5598L8.6239 10.5608L8.87198 10.9949ZM8.45805 11.2315L8.20997 10.7974L7.95805 10.9413L7.95805 11.2315L8.45805 11.2315ZM8.45804 16.7611L7.95804 16.7611L7.95804 16.9943L8.13669 17.1442L8.45804 16.7611ZM15.8739 16.6096L15.383 16.5147L15.3829 16.5149L15.8739 16.6096ZM15.6669 15.8299L15.3002 16.1698L15.3005 16.1702L15.6669 15.8299ZM15.5914 15.4888L15.1116 15.3481L15.111 15.3502L15.5914 15.4888ZM15.8304 15.2672L15.7649 14.7715L15.7629 14.7718L15.8304 15.2672ZM16.2381 13.8693L15.8714 14.2092L15.872 14.2097L16.2381 13.8693ZM7.88617 16.9052L8.38617 16.9137L8.38617 16.9052L7.88617 16.9052ZM4.45496 16.9115L3.95496 16.9115L4.45496 16.9115ZM4.45497 11.6831L3.95497 11.6831L4.45497 11.6831ZM5.31275 10.7028L5.31275 11.2028L5.31275 10.7028ZM7.88611 10.7028L8.38611 10.7028L8.38611 10.2028L7.88611 10.2028L7.88611 10.7028ZM7.88617 11.0359L8.38624 11.0359L8.3861 11.0274L7.88617 11.0359ZM18.1077 12.5001C18.1077 11.9928 17.9313 11.5083 17.6121 11.1426L16.8587 11.8002C17.0107 11.9743 17.1077 12.2218 17.1077 12.5001L18.1077 12.5001ZM17.1516 14.2411C17.7436 13.9001 18.1077 13.2275 18.1077 12.5001L17.1077 12.5001C17.1077 12.9059 16.9046 13.2293 16.6525 13.3746L17.1516 14.2411ZM17.5359 14.4607C17.5359 14.1625 17.4761 13.8725 17.3601 13.6074L16.444 14.0082C16.503 14.1431 16.5359 14.2963 16.5359 14.4607L17.5359 14.4607ZM16.5787 16.202C17.1711 15.8617 17.5359 15.1882 17.5359 14.4607L16.5359 14.4607C16.5359 14.8665 16.3322 15.1903 16.0805 15.3349L16.5787 16.202ZM16.9235 16.8454C17.0078 16.4082 16.96 15.9619 16.7877 15.5681L15.8715 15.9689C15.96 16.1711 15.9888 16.4111 15.9416 16.6561L16.9235 16.8454ZM15.1367 18.3919C16.0262 18.3919 16.7552 17.7145 16.9234 16.8458L15.9417 16.6557C15.8537 17.1098 15.4927 17.3919 15.1367 17.3919L15.1367 18.3919ZM9.88763 18.3919L15.1367 18.3919L15.1367 17.3919L9.88763 17.3919L9.88763 18.3919ZM8.12049 17.8961C8.6763 18.2229 9.40485 18.3919 9.88763 18.3919L9.88763 17.3919C9.57551 17.3919 9.02311 17.2668 8.62731 17.0341L8.12049 17.8961ZM7.02833 19.0454C7.90663 19.0454 8.59951 18.41 8.85064 17.6158L7.89716 17.3144C7.75027 17.7789 7.38636 18.0454 7.02833 18.0454L7.02833 19.0454ZM5.31275 19.0454L7.02833 19.0454L7.02833 18.0454L5.31275 18.0454L5.31275 19.0454ZM3.38312 16.9115C3.38312 18.0241 4.18741 19.0454 5.31275 19.0454L5.31275 18.0454C4.86094 18.0454 4.38312 17.6015 4.38312 16.9115L3.38312 16.9115ZM3.38312 11.6831L3.38312 16.9115L4.38312 16.9115L4.38312 11.6831L3.38312 11.6831ZM5.31273 9.54922C4.18741 9.54926 3.38312 10.5705 3.38312 11.6831L4.38312 11.6831C4.38312 10.9932 4.86095 10.5492 5.31277 10.5492L5.31273 9.54922ZM8.17203 9.54922L5.31275 9.54922L5.31275 10.5492L8.17203 10.5492L8.17203 9.54922ZM8.95796 10.376C8.95796 9.98428 8.66663 9.54922 8.17203 9.54922L8.17203 10.5492C8.0893 10.5492 8.02895 10.5097 7.99789 10.4742C7.96768 10.4397 7.95796 10.4035 7.95796 10.376L8.95796 10.376ZM8.95796 10.5008L8.95796 10.376L7.95796 10.376L7.95796 10.5008L8.95796 10.5008ZM8.27336 10.0295L8.2053 10.0694L8.71063 10.9323L8.77869 10.8924L8.27336 10.0295ZM9.70995 6.19615L8.06244 10.2737L8.98961 10.6483L10.6371 6.57077L9.70995 6.19615ZM9.67354 4.16728L9.67354 6.38346L10.6735 6.38346L10.6735 4.16728L9.67354 4.16728ZM9.94405 3.54239C9.76285 3.70772 9.67354 3.94052 9.67354 4.16728L10.6735 4.16728C10.6735 4.1954 10.6631 4.23998 10.6181 4.28111L9.94405 3.54239ZM9.94988 3.53715L9.94927 3.5377L10.6128 4.2858L10.6135 4.28526L9.94988 3.53715ZM11.3173 3.01373C10.533 3.01373 9.98948 3.50199 9.94968 3.53733L10.6137 4.28508C10.6242 4.27572 10.9256 4.01373 11.3173 4.01373L11.3173 3.01373ZM13.5328 6.12793C13.5328 5.29815 13.2262 4.54374 12.8276 3.99531C12.6278 3.72027 12.3959 3.48456 12.1512 3.31328C11.9145 3.14749 11.6245 3.01373 11.3173 3.01373L11.3173 4.01373C11.3409 4.01373 11.4308 4.02956 11.5777 4.13244C11.7168 4.22983 11.8724 4.38187 12.0187 4.5832C12.3125 4.98748 12.5328 5.54016 12.5328 6.12793L13.5328 6.12793ZM13.0581 8.8806C13.2339 8.27047 13.5328 7.09844 13.5328 6.12793L12.5328 6.12793C12.5328 6.94555 12.2713 7.99947 12.0972 8.60366L13.0581 8.8806ZM16.11 8.24213L12.5776 8.24213L12.5776 9.24213L16.11 9.24213L16.11 8.24213ZM18.0998 10.1836C18.0147 9.12731 17.1732 8.24213 16.11 8.24213L16.11 9.24213C16.5863 9.24213 17.0543 9.65883 17.103 10.2639L18.0998 10.1836ZM17.6259 11.7836C17.9767 11.3451 18.1466 10.7698 18.0998 10.184L17.103 10.2635C17.1306 10.6096 17.0283 10.9298 16.8449 11.1591L17.6259 11.7836ZM16.3341 12.8111C16.0012 12.8565 15.7655 13.1052 15.6828 13.3875L16.6425 13.6687C16.6306 13.7092 16.5814 13.7867 16.4692 13.802L16.3341 12.8111ZM16.5358 12.5001C16.5358 12.7102 16.4036 12.8019 16.3362 12.8108L16.4671 13.8022C17.1225 13.7157 17.5359 13.1147 17.5358 12.5L16.5358 12.5001ZM16.393 12.2102C16.4641 12.2516 16.5358 12.3535 16.5358 12.5001L17.5358 12.5001C17.5358 12.0375 17.3079 11.5853 16.8953 11.3456L16.393 12.2102ZM15.9894 11.5164C15.9985 11.7852 16.1345 12.057 16.3891 12.208L16.8992 11.3478C16.9707 11.3903 16.9878 11.4504 16.9889 11.4826L15.9894 11.5164ZM16.3374 10.7994C16.096 10.9689 15.9804 11.2494 15.9894 11.5164L16.9889 11.4826C16.9895 11.5013 16.9859 11.5223 16.9757 11.5442C16.9656 11.5659 16.9462 11.5939 16.912 11.6179L16.3374 10.7994ZM16.5335 10.3244C16.5509 10.5381 16.4589 10.7138 16.3365 10.8001L16.9129 11.6173C17.352 11.3075 17.5734 10.7747 17.5302 10.2433L16.5335 10.3244ZM16.11 9.89571C16.307 9.89571 16.5127 10.066 16.5334 10.3239L17.5302 10.2438C17.4709 9.50575 16.8669 8.89571 16.11 8.89571L16.11 9.89571ZM12.1751 9.89571L16.11 9.89571L16.11 8.89571L12.1751 8.89571L12.1751 9.89571ZM11.5124 9.51466C11.6454 9.73288 11.8857 9.89571 12.1751 9.89571L12.1751 8.89571C12.2768 8.89571 12.341 8.95266 12.3665 8.99442L11.5124 9.51466ZM11.4334 8.79522C11.356 9.02867 11.38 9.29344 11.5104 9.51129L12.3685 8.99779C12.3816 9.01962 12.387 9.03992 12.3887 9.05637C12.3904 9.07283 12.3889 9.09084 12.3826 9.10998L11.4334 8.79522ZM11.4336 8.79451C11.4334 8.79535 11.4331 8.79632 11.4328 8.79712C11.4327 8.79752 11.4325 8.79811 11.4323 8.79875C11.4322 8.79906 11.4316 8.80071 11.431 8.80272L12.385 9.10248C12.3847 9.10358 12.3844 9.10442 12.3843 9.10476C12.3842 9.10518 12.3841 9.10549 12.384 9.10564C12.3839 9.10592 12.3839 9.10606 12.3839 9.10591C12.384 9.10563 12.3842 9.10513 12.3845 9.10416L11.4336 8.79451ZM11.961 6.12793C11.961 6.62904 11.8418 7.26612 11.7094 7.81145C11.5791 8.34797 11.4454 8.75831 11.4336 8.79458L12.3845 9.10409C12.3999 9.05677 12.5422 8.61928 12.6811 8.04743C12.8178 7.48439 12.961 6.75256 12.961 6.12793L11.961 6.12793ZM11.3173 4.66728C11.2476 4.66728 11.2147 4.64575 11.2322 4.65455C11.2433 4.66009 11.2702 4.67609 11.3107 4.7094C11.3915 4.77572 11.4942 4.88444 11.5956 5.03081C11.8 5.32607 11.961 5.71874 11.961 6.12793L12.961 6.12793C12.961 5.46661 12.7068 4.87895 12.4177 4.46151C12.2723 4.25154 12.1087 4.07081 11.9456 3.93678C11.8642 3.86991 11.7749 3.80801 11.6806 3.76068C11.5927 3.71663 11.4653 3.66728 11.3173 3.66728L11.3173 4.66728ZM11.0124 4.7671C11.0921 4.71676 11.204 4.66728 11.3173 4.66728L11.3173 3.66728C10.9376 3.66728 10.6366 3.8217 10.4784 3.92166L11.0124 4.7671ZM11.2454 6.45469L11.2454 4.34438L10.2454 4.34438L10.2454 6.45469L11.2454 6.45469ZM11.1837 6.77672C11.2241 6.67522 11.2454 6.56549 11.2454 6.45469L10.2454 6.45469C10.2454 6.438 10.2484 6.42238 10.2545 6.40715L11.1837 6.77672ZM9.46714 11.0273L11.1827 6.77917L10.2555 6.4047L8.5399 10.6528L9.46714 11.0273ZM9.11822 11.4301C9.28485 11.3358 9.40158 11.188 9.46649 11.0289L8.54054 10.6512C8.55055 10.6267 8.57464 10.5887 8.62574 10.5598L9.11822 11.4301ZM8.70612 11.6656L9.12006 11.429L8.6239 10.5608L8.20997 10.7974L8.70612 11.6656ZM8.95804 16.7611L8.95805 11.2315L7.95805 11.2315L7.95804 16.7611L8.95804 16.7611ZM9.88763 16.7383C9.74388 16.7383 9.52082 16.7005 9.28903 16.6255C9.05274 16.549 8.87014 16.4542 8.7794 16.3781L8.13669 17.1442C8.36842 17.3386 8.68908 17.4824 8.98121 17.5769C9.27783 17.6729 9.60833 17.7383 9.88763 17.7383L9.88763 16.7383ZM15.1367 16.7383L9.88763 16.7383L9.88763 17.7383L15.1367 17.7383L15.1367 16.7383ZM15.3829 16.5149C15.3554 16.6579 15.2404 16.7383 15.1367 16.7383L15.1367 17.7383C15.7468 17.7383 16.2517 17.2907 16.3648 16.7043L15.3829 16.5149ZM15.3005 16.1702C15.3705 16.2455 15.4121 16.3641 15.383 16.5147L16.3648 16.7045C16.4489 16.2695 16.3395 15.8195 16.0332 15.4897L15.3005 16.1702ZM15.111 15.3502C15.031 15.6276 15.0916 15.9449 15.3002 16.1698L16.0335 15.49C16.0581 15.5165 16.0693 15.5435 16.0738 15.564C16.0784 15.5846 16.078 15.606 16.0718 15.6273L15.111 15.3502ZM15.7629 14.7718C15.4299 14.8172 15.1943 15.0659 15.1116 15.3481L16.0712 15.6294C16.0593 15.6698 16.0102 15.7473 15.8979 15.7626L15.7629 14.7718ZM15.964 14.4607C15.964 14.6711 15.8316 14.7627 15.7649 14.7715L15.8959 15.7629C16.5509 15.6763 16.964 15.0752 16.964 14.4607L15.964 14.4607ZM15.872 14.2097C15.9267 14.2685 15.964 14.3554 15.964 14.4607L16.964 14.4607C16.964 14.1164 16.8401 13.7824 16.6043 13.5288L15.872 14.2097ZM15.6822 13.3895C15.6022 13.6669 15.6629 13.9842 15.8714 14.2092L16.6048 13.5293C16.6294 13.5558 16.6406 13.5828 16.6451 13.6033C16.6496 13.6239 16.6492 13.6453 16.6431 13.6667L15.6822 13.3895ZM7.38624 16.8967C7.38616 16.9016 7.38611 16.9066 7.38611 16.9115L8.38611 16.9115C8.38611 16.9123 8.38611 16.913 8.3861 16.9137L7.38624 16.8967ZM7.38611 16.9115C7.38611 17.2407 7.16449 17.3919 7.02833 17.3919L7.02833 18.3919C7.83803 18.3919 8.38611 17.6634 8.38611 16.9115L7.38611 16.9115ZM7.02833 17.3919L5.31275 17.3919L5.31275 18.3919L7.02833 18.3919L7.02833 17.3919ZM5.31275 17.3919C5.17659 17.3919 4.95496 17.2407 4.95496 16.9115L3.95496 16.9115C3.95496 17.6634 4.50305 18.3919 5.31275 18.3919L5.31275 17.3919ZM4.95496 16.9115L4.95497 11.6831L3.95497 11.6831L3.95496 16.9115L4.95496 16.9115ZM4.95497 11.6831C4.95497 11.354 5.17659 11.2028 5.31275 11.2028L5.31275 10.2028C4.50305 10.2028 3.95497 10.9313 3.95497 11.6831L4.95497 11.6831ZM5.31275 11.2028L7.88611 11.2028L7.88611 10.2028L5.31275 10.2028L5.31275 11.2028ZM7.38611 10.7028L7.38611 11.0296L8.38611 11.0296L8.38611 10.7028L7.38611 10.7028ZM7.38611 11.0296C7.38611 11.0345 7.38616 11.0395 7.38624 11.0444L8.3861 11.0274C8.38611 11.0281 8.38611 11.0288 8.38611 11.0296L7.38611 11.0296ZM7.38617 11.0359L7.38617 16.9052L8.38617 16.9052L8.38617 11.0359L7.38617 11.0359Z" fill="#12BF6C" mask="url(#path-1-outside-1)"/>
</svg>
