<svg width="24" height="25" viewBox="0 0 24 25" fill="none" xmlns="http://www.w3.org/2000/svg">
<path d="M12.0079 23.7504C11.5685 23.7504 11.1518 23.6128 10.8032 23.3526C7.15323 20.6925 4.59966 16.8187 3.61945 12.4494C3.61276 12.4197 3.60827 12.3903 3.60593 12.361C3.48833 11.795 3.42871 11.213 3.42871 10.6301C3.42866 5.94627 7.27351 2.13574 11.9994 2.13574C16.7261 2.13574 20.5716 5.94627 20.5716 10.6301C20.5716 11.2521 20.5043 11.8683 20.3713 12.4628C20.3689 12.4916 20.3644 12.5202 20.3579 12.5486C19.3765 16.815 16.8794 20.6186 13.3267 23.2587L13.062 23.4509C13.0429 23.4646 13.023 23.4774 13.0025 23.489C12.7002 23.66 12.3562 23.7504 12.0079 23.7504ZM4.88947 12.252C5.81537 16.2889 8.18522 19.8663 11.5693 22.3326C11.7955 22.5016 12.0965 22.5235 12.3396 22.3993L12.5612 22.2384C15.8442 19.7988 18.161 16.2884 19.0879 12.3486C19.0904 12.3195 19.095 12.2905 19.1017 12.2617C19.2258 11.7347 19.2886 11.1857 19.2886 10.6301C19.2886 6.64742 16.0188 3.40723 11.9994 3.40723C7.98091 3.40723 4.71158 6.64742 4.71158 10.6301C4.71158 11.1515 4.76738 11.6715 4.87763 12.1754C4.88312 12.2011 4.88713 12.2265 4.88947 12.252Z" fill="#EB1537" stroke="#EB1537" stroke-width="0.5"/>
<path d="M11.9995 14.6493C9.79406 14.6493 8 12.8634 8 10.6682C8 8.47251 9.79412 6.68604 11.9995 6.68604C14.2054 6.68604 16 8.47251 16 10.6682C16.0001 12.8634 14.2054 14.6493 11.9995 14.6493ZM11.9995 8.07868C10.5655 8.07868 9.39883 9.24027 9.39883 10.6682C9.39883 12.0955 10.5655 13.2567 11.9995 13.2567C13.434 13.2567 14.6012 12.0955 14.6012 10.6682C14.6012 9.24027 13.434 8.07868 11.9995 8.07868Z" fill="#EB1537" stroke="#EB1537" stroke-width="0.5"/>
</svg>
