<svg width="60" height="60" viewBox="0 0 60 60" fill="none" xmlns="http://www.w3.org/2000/svg">
<path d="M44.0625 0H15.9375C13.0297 0 10.6641 2.36566 10.6641 5.27344V54.7266C10.6641 57.6343 13.0297 60 15.9375 60H44.0625C46.9703 60 49.3359 57.6343 49.3359 54.7266V5.27344C49.3359 2.36566 46.9703 0 44.0625 0Z" fill="url(#paint0_linear)"/>
<path d="M42 30C42 36.6274 36.6274 42 30 42C23.3726 42 18 36.6274 18 30C18 23.3726 23.3726 18 30 18C36.6274 18 42 23.3726 42 30Z" fill="white"/>
<path d="M30 26.1429H34V23.5714H31.3333V21H28.6667V23.8081C26.8314 24.4315 25.7298 26.2405 26.0596 28.0896C26.3893 29.9388 28.054 31.2892 30 31.2857C30.7363 31.2857 31.3333 31.8614 31.3333 32.5714C31.3333 33.2815 30.7363 33.8571 30 33.8571H26V36.4286H28.6667V39H31.3333V36.1919C33.1686 35.5685 34.2702 33.7595 33.9404 31.9104C33.6107 30.0612 31.946 28.7108 30 28.7143C29.2637 28.7143 28.6667 28.1386 28.6667 27.4286C28.6667 26.7185 29.2637 26.1429 30 26.1429Z" fill="#4490E3"/>
<path d="M33.5156 52.1806H26.4844C25.5136 52.1806 24.7266 52.9677 24.7266 53.9384C24.7266 54.9092 25.5136 55.6962 26.4844 55.6962H33.5156C34.4864 55.6962 35.2734 54.9092 35.2734 53.9384C35.2734 52.9677 34.4864 52.1806 33.5156 52.1806ZM30 7.81982C30.9708 7.81982 31.7578 7.03279 31.7578 6.06201C31.7578 5.09123 30.9708 4.3042 30 4.3042C29.0292 4.3042 28.2422 5.09123 28.2422 6.06201C28.2422 7.03279 29.0292 7.81982 30 7.81982Z" fill="white"/>
<defs>
<linearGradient id="paint0_linear" x1="30" y1="60" x2="30" y2="0" gradientUnits="userSpaceOnUse">
<stop stop-color="#6178F3"/>
<stop offset="1" stop-color="#339FDB"/>
</linearGradient>
</defs>
</svg>
