<svg width="60" height="60" viewBox="0 0 60 60" fill="none" xmlns="http://www.w3.org/2000/svg">
<path d="M44.0625 0H15.9375C13.0297 0 10.6641 2.36566 10.6641 5.27344V54.7266C10.6641 57.6343 13.0297 60 15.9375 60H44.0625C46.9703 60 49.3359 57.6343 49.3359 54.7266V5.27344C49.3359 2.36566 46.9703 0 44.0625 0Z" fill="url(#paint0_linear)"/>
<path d="M41.973 25.4567C41.6426 24.9984 41.1119 24.7268 40.5469 24.7268H38.1427L35.0879 18.6171C34.6538 17.7487 33.598 17.3967 32.7296 17.831C31.8612 18.2652 31.5093 19.321 31.9435 20.1894L34.2122 24.7269H25.7879L28.0566 20.1894C28.4908 19.321 28.1389 18.2653 27.2705 17.831C26.4026 17.3969 25.3464 17.7487 24.9122 18.6171L21.8574 24.7268H19.4532C18.8882 24.7268 18.3575 24.9984 18.0271 25.4567C17.6968 25.9151 17.6069 26.5043 17.7855 27.0404L21.3011 37.5873C21.5405 38.3052 22.2122 38.7893 22.9688 38.7893H37.0313C37.7879 38.7893 38.4596 38.3052 38.6989 37.5874L42.2145 27.0405C42.3932 26.5044 42.3033 25.9152 41.973 25.4567ZM33.5157 52.1806H26.4844C25.5136 52.1806 24.7266 52.9677 24.7266 53.9384C24.7266 54.9092 25.5136 55.6962 26.4844 55.6962H33.5157C34.4864 55.6962 35.2735 54.9092 35.2735 53.9384C35.2735 52.9677 34.4864 52.1806 33.5157 52.1806ZM30 7.81982C30.9708 7.81982 31.7579 7.03279 31.7579 6.06201C31.7579 5.09123 30.9708 4.3042 30 4.3042C29.0293 4.3042 28.2422 5.09123 28.2422 6.06201C28.2422 7.03279 29.0293 7.81982 30 7.81982Z" fill="white"/>
<defs>
<linearGradient id="paint0_linear" x1="30" y1="60" x2="30" y2="0" gradientUnits="userSpaceOnUse">
<stop stop-color="#DB3333"/>
<stop offset="1" stop-color="#F36161"/>
</linearGradient>
</defs>
</svg>
