<svg width="60" height="60" viewBox="0 0 60 60" fill="none" xmlns="http://www.w3.org/2000/svg">
<path d="M44.0625 0H15.9375C13.0297 0 10.6641 2.36566 10.6641 5.27344V54.7266C10.6641 57.6343 13.0297 60 15.9375 60H44.0625C46.9703 60 49.3359 57.6343 49.3359 54.7266V5.27344C49.3359 2.36566 46.9703 0 44.0625 0Z" fill="url(#paint0_linear)"/>
<path d="M26.4844 52.1806H33.5156C34.4864 52.1806 35.2734 52.9677 35.2734 53.9384C35.2734 54.9092 34.4864 55.6962 33.5156 55.6962H26.4844C25.5136 55.6962 24.7266 54.9092 24.7266 53.9384C24.7266 52.9677 25.5136 52.1806 26.4844 52.1806Z" fill="white"/>
<path d="M31.7578 6.06201C31.7578 7.03279 30.9708 7.81982 30 7.81982C29.0292 7.81982 28.2422 7.03279 28.2422 6.06201C28.2422 5.09123 29.0292 4.3042 30 4.3042C30.9708 4.3042 31.7578 5.09123 31.7578 6.06201Z" fill="white"/>
<path d="M22.0195 35.6548L35.65 22.0243L37.6974 24.0718L24.0669 37.7022L22.0195 35.6548Z" fill="white"/>
<path d="M35.6558 31.3115C33.2603 31.3115 31.3115 33.2603 31.3115 35.6558C31.3115 38.0514 33.2603 40.0001 35.6558 40.0001C38.0514 40.0001 40.0001 38.0514 40.0001 35.6558C40.0001 33.2603 38.0514 31.3115 35.6558 31.3115ZM35.6558 37.1039C34.8573 37.1039 34.2077 36.4543 34.2077 35.6558C34.2077 34.8573 34.8573 34.2077 35.6558 34.2077C36.4543 34.2077 37.1039 34.8573 37.1039 35.6558C37.1039 36.4543 36.4543 37.1039 35.6558 37.1039Z" fill="white"/>
<path d="M24.0709 19.7266C21.6753 19.7266 19.7266 21.6753 19.7266 24.0709C19.7266 26.4664 21.6753 28.4152 24.0709 28.4152C26.4664 28.4152 28.4152 26.4664 28.4152 24.0709C28.4152 21.6753 26.4664 19.7266 24.0709 19.7266ZM24.0709 25.519C23.2724 25.519 22.6228 24.8694 22.6228 24.0709C22.6228 23.2724 23.2724 22.6228 24.0709 22.6228C24.8694 22.6228 25.519 23.2724 25.519 24.0709C25.519 24.8694 24.8694 25.519 24.0709 25.519Z" fill="white"/>
<defs>
<linearGradient id="paint0_linear" x1="30" y1="60" x2="30" y2="0" gradientUnits="userSpaceOnUse">
<stop stop-color="#2FC284"/>
<stop offset="1" stop-color="#33DB62"/>
</linearGradient>
</defs>
</svg>
