<svg width="46" height="46" viewBox="0 0 46 46" fill="none" xmlns="http://www.w3.org/2000/svg">
<g clip-path="url(#clip0)">
<path d="M29.355 43.775L3.72304 34.8334L15.2661 1.7439L40.8988 10.6857C41.6598 10.9512 42.062 11.7843 41.7965 12.5454L31.2154 42.8774C30.9489 43.6389 30.1168 44.0407 29.355 43.775Z" fill="#40596B"/>
<path d="M32.5971 21.7933C33.3268 19.7017 33.2258 17.4798 32.3401 15.4812L32.3596 15.4718L32.1383 15.0312C31.1392 13.0387 29.4302 11.5339 27.327 10.7848C27.3076 10.778 27.2901 10.7665 27.2707 10.7597C27.2487 10.752 27.2256 10.7494 27.2031 10.7431C26.96 10.6598 26.7151 10.586 26.4682 10.5246C25.1164 10.1946 23.7181 10.1955 22.3782 10.5253C21.8414 10.6567 21.3142 10.84 20.8027 11.0761L20.3539 11.2829L20.3638 11.3034C18.4251 12.319 16.9649 13.9956 16.2358 16.0858C15.5071 18.1746 15.6083 20.3982 16.4918 22.4075L16.4713 22.4174L16.694 22.8562C17.7094 24.8574 19.4325 26.3663 21.5448 27.1094C21.5517 27.1118 21.5574 27.1153 21.5636 27.1175C21.5678 27.1189 21.5712 27.1201 21.5753 27.1215C22.1052 27.3049 22.643 27.4368 23.1869 27.5159C23.5175 27.5632 23.8493 27.5854 24.1816 27.5946C25.4933 27.6315 26.8054 27.3724 28.0271 26.8097L28.0274 26.8089L28.474 26.6037L28.4638 26.5839C30.4064 25.5619 31.8685 23.8821 32.5971 21.7933ZM31.0397 15.0106C30.6595 15.1563 30.2678 15.2594 29.873 15.3405C29.8206 14.5065 29.6714 13.7415 29.4202 13.0831C30.058 13.6289 30.6073 14.2752 31.0397 15.0106ZM29.2203 20.1088C29.6369 18.7881 29.8582 17.4998 29.892 16.3169C30.4282 16.2186 30.9556 16.0677 31.4663 15.8647C32.1892 17.4987 32.316 19.2966 31.8295 21.0191L29.2202 20.1089L29.2203 20.1088ZM27.3858 11.8794C28.2918 12.4676 28.8192 13.7975 28.9122 15.4747C28.01 15.5451 27.1007 15.4498 26.2267 15.2021L27.3858 11.8794ZM25.325 14.8876C24.4866 14.5379 23.7152 14.0469 23.0519 13.4304C24.168 12.175 25.4079 11.4624 26.4841 11.5648L25.325 14.8876ZM22.3831 12.7277C22.1237 12.4183 21.8809 12.0947 21.6742 11.745C22.4705 11.4397 23.3009 11.2756 24.1377 11.2442C23.5331 11.6033 22.9417 12.1083 22.3831 12.7277ZM22.4527 14.1771C23.1978 14.8631 24.0641 15.4143 25.0056 15.803L24.124 18.3302L20.8309 17.1815C21.2688 16.0483 21.8279 15.0286 22.4527 14.1771ZM23.8092 19.2327L22.9211 21.7785C21.9426 21.4936 20.9243 21.378 19.9177 21.4484C19.958 20.393 20.154 19.2458 20.5161 18.0839L23.8092 19.2327ZM22.6078 22.6767L21.4494 25.9973C20.5425 25.4095 20.0158 24.0798 19.9225 22.4034C20.8224 22.333 21.7324 22.4286 22.6078 22.6767ZM23.5095 22.9912C24.3458 23.3402 25.118 23.8307 25.7812 24.4479C24.6653 25.7026 23.4255 26.4153 22.3511 26.3119L23.5095 22.9912ZM26.3792 23.7023C25.6327 23.0205 24.7618 22.4778 23.8228 22.093L24.7109 19.5471L28.0033 20.6957C27.5641 21.8307 27.0041 22.8509 26.3792 23.7023ZM25.0255 18.6455L25.9071 16.1183C26.8861 16.3995 27.9066 16.5065 28.9166 16.4328C28.8764 17.4882 28.6801 18.6337 28.3179 19.794L25.0255 18.6455ZM21.7604 13.4817C21.0516 14.4276 20.4236 15.5741 19.9283 16.8674L17.3177 15.9567C18.0082 14.3054 19.2252 12.9778 20.809 12.1485C21.0836 12.6247 21.4032 13.0695 21.7604 13.4817ZM19.6138 17.7691C19.1969 19.0905 18.976 20.3798 18.9415 21.5625C18.4028 21.6614 17.874 21.8141 17.3644 22.0183C16.6431 20.3795 16.5176 18.5804 17.0031 16.8584L19.6138 17.7691ZM18.9605 22.5387C19.0136 23.373 19.1637 24.1375 19.4132 24.7945C18.7779 24.2504 18.2267 23.605 17.7922 22.8711C18.1697 22.7245 18.5627 22.6219 18.9605 22.5387ZM26.4505 25.1515C26.7103 25.4641 26.9536 25.7887 27.1581 26.1399C26.361 26.4456 25.5284 26.6091 24.6884 26.6386C25.2951 26.2803 25.8882 25.7727 26.4505 25.1515ZM27.0726 24.3989C27.782 23.4517 28.41 22.3052 28.9057 21.0105L31.515 21.9207C30.8257 23.5708 29.6084 24.9014 28.024 25.7368C27.7515 25.259 27.4322 24.8113 27.0726 24.3989Z" fill="#CDD6E0"/>
<path d="M26.7079 37.3521L11.1696 31.9316C10.3589 31.6488 9.93177 30.7629 10.2146 29.9522C10.4974 29.1415 11.3824 28.7149 12.1931 28.9977L27.7314 34.4182C28.5413 34.7007 28.9697 35.5855 28.6869 36.3962C28.4041 37.2068 27.5179 37.6346 26.7079 37.3521Z" fill="#FFD15C"/>
</g>
<defs>
<clipPath id="clip0">
<rect width="35.0451" height="35.0451" fill="white" transform="translate(12.2271 0.683716) rotate(19.231)"/>
</clipPath>
</defs>
</svg>
