<svg width="26" height="26" viewBox="0 0 26 26" fill="none" xmlns="http://www.w3.org/2000/svg">
<path fill-rule="evenodd" clip-rule="evenodd" d="M13.0002 4.3335C15.9869 4.3335 18.4168 6.76341 18.4168 9.75016C18.4168 12.3653 16.5524 14.5547 14.0835 15.0563V16.2502C14.0835 16.8492 13.5992 17.3335 13.0002 17.3335C12.4011 17.3335 11.9168 16.8492 11.9168 16.2502V14.0835C11.9168 13.4844 12.4011 13.0002 13.0002 13.0002C14.792 13.0002 16.2502 11.542 16.2502 9.75016C16.2502 7.95833 14.792 6.50016 13.0002 6.50016C11.2083 6.50016 9.75016 7.95833 9.75016 9.75016C9.75016 10.3492 9.26591 10.8335 8.66683 10.8335C8.06775 10.8335 7.5835 10.3492 7.5835 9.75016C7.5835 6.76341 10.0134 4.3335 13.0002 4.3335ZM11.9168 20.5835C11.9168 19.9844 12.4011 19.5002 13.0002 19.5002C13.5992 19.5002 14.0835 19.9844 14.0835 20.5835C14.0835 21.1826 13.5992 21.6668 13.0002 21.6668C12.4011 21.6668 11.9168 21.1826 11.9168 20.5835Z" fill="white"/>
</svg>
