<svg width="20" height="20" viewBox="0 0 20 20" fill="none" xmlns="http://www.w3.org/2000/svg">
<path d="M18.639 14.5976L15.9892 11.9348C15.6334 11.5791 15.1569 11.3832 14.6477 11.3832C14.1178 11.3832 13.6174 11.5928 13.2391 11.973L12.2077 13.0089C11.4062 12.5614 10.3409 11.9459 9.23491 10.8349C8.1302 9.72484 7.5174 8.65789 7.06962 7.84844L8.10206 6.81212C8.86966 6.03947 8.88536 4.7999 8.13718 4.04904L5.48794 1.3878C5.13308 1.03035 4.65656 0.833496 4.14607 0.833496C3.62799 0.833496 3.1379 1.03386 2.7618 1.39855C2.53428 1.58261 1.39247 2.59508 0.966925 4.68311C0.371111 7.60572 1.74006 10.4177 5.69203 14.3891C10.1067 18.8223 13.8755 19.1668 14.9255 19.1668C15.1441 19.1668 15.276 19.1533 15.3111 19.1492C17.37 18.9067 18.1072 17.9883 18.6455 17.3176C19.3429 16.4485 19.3405 15.3048 18.639 14.5976ZM17.7598 16.6004C17.2538 17.2307 16.776 17.826 15.1788 18.0141C15.178 18.0142 15.0906 18.024 14.9255 18.024C13.9861 18.024 10.6019 17.7036 6.49649 13.581C2.85205 9.91865 1.5729 7.40712 2.08142 4.91227C2.45259 3.09103 3.43801 2.31694 3.47631 2.28753L3.51029 2.26231L3.54009 2.2323C3.70459 2.06721 3.91976 1.97624 4.14599 1.97624C4.35198 1.97624 4.54249 2.0538 4.68295 2.19535L7.3328 4.85719C7.63768 5.16314 7.62145 5.67799 7.29707 6.00451L6.12949 7.17636L6.1103 7.19655C5.80602 7.5332 5.84182 7.98816 6.00943 8.28444C6.49307 9.16116 7.15555 10.3619 8.43031 11.6427C9.70081 12.919 10.8944 13.5839 11.7648 14.0688C11.8519 14.1179 12.0318 14.2004 12.257 14.2004C12.5229 14.2004 12.767 14.0873 12.9478 13.8812L14.0435 12.7808C14.2071 12.6164 14.4216 12.5259 14.6475 12.5259C14.854 12.5259 15.0455 12.6036 15.1856 12.7437L17.8336 15.4047C18.17 15.7438 18.0311 16.2623 17.7598 16.6004Z" fill="#EB1537" stroke="#EB1537" stroke-width="0.5"/>
</svg>
