<svg width="21" height="21" viewBox="0 0 21 21" fill="none" xmlns="http://www.w3.org/2000/svg">
<path fill-rule="evenodd" clip-rule="evenodd" d="M7 8.75C7.7245 8.75 8.3125 8.162 8.3125 7.4375C8.3125 6.713 7.7245 6.125 7 6.125C6.2755 6.125 5.6875 6.713 5.6875 7.4375C5.6875 8.162 6.2755 8.75 7 8.75ZM15.75 16.625H5.74088L11.8703 11.5106C12.0855 11.3278 12.4758 11.3286 12.6866 11.5098L16.625 14.8698V15.75C16.625 16.233 16.233 16.625 15.75 16.625ZM5.25 4.375H15.75C16.233 4.375 16.625 4.767 16.625 5.25V12.5685L13.8224 10.178C12.9561 9.44125 11.6007 9.44125 10.7424 10.1727L4.375 15.4858V5.25C4.375 4.767 4.767 4.375 5.25 4.375ZM15.75 2.625H5.25C3.80275 2.625 2.625 3.80275 2.625 5.25V15.75C2.625 17.1973 3.80275 18.375 5.25 18.375H15.75C17.1973 18.375 18.375 17.1973 18.375 15.75V5.25C18.375 3.80275 17.1973 2.625 15.75 2.625Z" fill="#EB1537"/>
</svg>
