<svg width="24" height="24" viewBox="0 0 24 24" fill="none" xmlns="http://www.w3.org/2000/svg">
<rect width="24" height="24" fill="white" fill-opacity="0.01"/>
<path d="M7.71436 4.84291C7.71436 7.19507 9.63679 9.10867 11.9998 9.10867C14.3628 9.10867 16.2852 7.19507 16.2852 4.84291C16.2852 2.49075 14.3628 0.577148 11.9998 0.577148C9.63679 0.577148 7.71436 2.49003 7.71436 4.84291ZM11.9999 1.87658C13.643 1.87658 14.9798 3.20731 14.9798 4.84219C14.9798 6.4784 13.643 7.80841 11.9999 7.80841C10.3569 7.80841 9.02002 6.47768 9.02002 4.84219C9.02002 3.20743 10.3569 1.87658 11.9999 1.87658Z" fill="#EB1537" stroke="#EB1537" stroke-width="0.5"/>
<path d="M11.9977 10.5312C10.7125 10.5312 9.48664 10.7539 8.54618 11.1583L5.27786 12.5637C5.02304 12.6733 4.85742 12.9238 4.85742 13.2005V16.4961C4.85742 18.6957 6.79901 20.4847 9.18536 20.4847H14.8143C17.2006 20.4847 19.1422 18.7138 19.1422 16.5378V13.2846C19.1422 13.0127 18.9828 12.7664 18.7357 12.654L15.5579 11.2064C14.6026 10.7705 13.3383 10.5312 11.9977 10.5312ZM17.7498 16.5376C17.7498 17.9491 16.4327 19.0971 14.8142 19.0971H9.18523C7.56668 19.0971 6.24955 17.9297 6.24955 16.496V13.6561L9.09743 12.4311C9.86805 12.0995 10.8976 11.9178 11.9975 11.9178C13.1266 11.9178 14.2126 12.1175 14.9791 12.4664L17.7497 13.7289V16.5376H17.7498Z" fill="#EB1537" stroke="#EB1537" stroke-width="0.5"/>
</svg>
