<svg width="24" height="24" viewBox="0 0 24 24" fill="none" xmlns="http://www.w3.org/2000/svg">
<path d="M22.1406 7.06096C22.6153 7.06096 23 6.67627 23 6.20171V5.2995C23 2.92875 21.0709 1 18.6998 1C18.6998 1 5.22882 1.00202 5.1956 1.00593C4.06171 1.04554 2.97249 1.53205 2.18737 2.3546C1.38261 3.1977 0.963065 4.29427 1.00255 5.44802C1.00092 5.46989 1.00006 17.8413 1.00006 17.8413C1.00006 20.6858 3.31461 23 6.15956 23H18.6999C21.071 23 23 21.0712 23 18.7005V12.1767C23 9.806 21.071 7.87725 18.6999 7.87725H5.29688C3.91712 7.87725 2.78592 6.79898 2.7216 5.42246C2.6889 4.72252 2.94074 4.05437 3.43067 3.54105C3.92769 3.02035 4.62571 2.72176 5.34569 2.72176C5.37109 2.72176 18.6998 2.7185 18.6998 2.7185C20.1232 2.7185 21.2812 3.87633 21.2812 5.2995V6.20171C21.2813 6.67627 21.666 7.06096 22.1406 7.06096ZM5.29688 9.59574H18.6998C20.1232 9.59574 21.2812 10.7536 21.2812 12.1767V18.7005C21.2812 20.1237 20.1232 21.2815 18.6998 21.2815H6.15956C4.26233 21.2815 2.71881 19.7382 2.71881 17.8413V8.73997C3.43759 9.27829 4.33069 9.59574 5.29688 9.59574ZM19.5625 15.4386C19.5625 16.0318 19.0816 16.5127 18.4883 16.5127C17.0634 16.4561 17.0638 14.4209 18.4883 14.3646C19.0816 14.3646 19.5625 14.8454 19.5625 15.4386ZM19.5625 5.2995C19.5625 4.82494 19.1778 4.44026 18.7031 4.44026H5.29693C4.15671 4.48562 4.15757 6.11377 5.29693 6.15875H18.7031C19.1777 6.15875 19.5625 5.77407 19.5625 5.2995Z" fill="#8A8A8A" stroke="#8A8A8A" stroke-width="0.3"/>
</svg>
