<svg width="22" height="22" viewBox="0 0 22 22" fill="none" xmlns="http://www.w3.org/2000/svg">
<path d="M11 22C4.92039 22 0 17.0802 0 11C0 4.92039 4.91975 0 11 0C17.0796 0 22 4.91975 22 11C22 17.0796 17.0802 22 11 22Z" fill="#EB1537"/>
<path d="M10.9999 16.5769C10.576 16.5769 10.2324 16.2333 10.2324 15.8095V9.51644C10.2324 9.0926 10.5761 8.74902 10.9999 8.74902C11.4237 8.74902 11.7673 9.09264 11.7673 9.51644V15.8095C11.7673 16.2333 11.4237 16.5769 10.9999 16.5769Z" fill="white"/>
<path d="M10.9999 7.87913C10.576 7.87913 10.2324 7.53551 10.2324 7.11171V6.19076C10.2324 5.76692 10.5761 5.42334 10.9999 5.42334C11.4237 5.42334 11.7673 5.76696 11.7673 6.19076V7.11171C11.7673 7.53555 11.4237 7.87913 10.9999 7.87913Z" fill="white"/>
</svg>
